<?xml version="1.0" encoding="utf-8" standalone="no"?>
<!DOCTYPE svg PUBLIC "-//W3C//DTD SVG 1.1//EN"
  "http://www.w3.org/Graphics/SVG/1.1/DTD/svg11.dtd">
<svg xmlns:xlink="http://www.w3.org/1999/xlink" width="635.218012pt" height="370.851875pt" viewBox="0 0 635.218012 370.851875" xmlns="http://www.w3.org/2000/svg" version="1.1">
 <metadata>
  <rdf:RDF xmlns:dc="http://purl.org/dc/elements/1.1/" xmlns:cc="http://creativecommons.org/ns#" xmlns:rdf="http://www.w3.org/1999/02/22-rdf-syntax-ns#">
   <cc:Work>
    <dc:type rdf:resource="http://purl.org/dc/dcmitype/StillImage"/>
    <dc:date>2026-07-09T14:28:30.225763</dc:date>
    <dc:format>image/svg+xml</dc:format>
    <dc:creator>
     <cc:Agent>
      <dc:title>Matplotlib v3.10.9, https://matplotlib.org/</dc:title>
     </cc:Agent>
    </dc:creator>
   </cc:Work>
  </rdf:RDF>
 </metadata>
 <defs>
  <style type="text/css">*{stroke-linejoin: round; stroke-linecap: butt}</style>
 </defs>
 <g id="figure_1">
  <g id="patch_1">
   <path d="M 0 370.851875 
L 635.218012 370.851875 
L 635.218012 0 
L 0 0 
z
" style="fill: #ffffff"/>
  </g>
  <g id="axes_1">
   <g id="patch_2">
    <path d="M 49.765365 331.36 
L 230.179635 331.36 
L 230.179635 76.6575 
L 49.765365 76.6575 
z
" style="fill: #ffffff"/>
   </g>
   <g id="matplotlib.axis_1">
    <g id="xtick_1">
     <g id="line2d_1">
      <defs>
       <path id="ma4335721a3" d="M 0 0 
L 0 3.5 
" style="stroke: #000000; stroke-width: 0.8"/>
      </defs>
      <g>
       <use xlink:href="#ma4335721a3" x="86.909479" y="331.36" style="stroke: #000000; stroke-width: 0.8"/>
      </g>
     </g>
     <g id="text_1">
      <!-- 0 -->
      <g transform="translate(83.410104 346.718281) scale(0.11 -0.11)">
       <defs>
        <path id="DejaVuSerif-30" d="M 2034 219 
Q 2513 219 2750 744 
Q 2988 1269 2988 2328 
Q 2988 3391 2750 3916 
Q 2513 4441 2034 4441 
Q 1556 4441 1318 3916 
Q 1081 3391 1081 2328 
Q 1081 1269 1318 744 
Q 1556 219 2034 219 
z
M 2034 -91 
Q 1275 -91 848 546 
Q 422 1184 422 2328 
Q 422 3475 848 4112 
Q 1275 4750 2034 4750 
Q 2797 4750 3222 4112 
Q 3647 3475 3647 2328 
Q 3647 1184 3222 546 
Q 2797 -91 2034 -91 
z
" transform="scale(0.015625)"/>
       </defs>
       <use xlink:href="#DejaVuSerif-30"/>
      </g>
     </g>
    </g>
    <g id="xtick_2">
     <g id="line2d_2">
      <g>
       <use xlink:href="#ma4335721a3" x="139.9725" y="331.36" style="stroke: #000000; stroke-width: 0.8"/>
      </g>
     </g>
     <g id="text_2">
      <!-- 1 -->
      <g transform="translate(136.473125 346.718281) scale(0.11 -0.11)">
       <defs>
        <path id="DejaVuSerif-31" d="M 909 0 
L 909 331 
L 1722 331 
L 1722 4213 
L 781 3603 
L 781 4013 
L 1919 4750 
L 2350 4750 
L 2350 331 
L 3163 331 
L 3163 0 
L 909 0 
z
" transform="scale(0.015625)"/>
       </defs>
       <use xlink:href="#DejaVuSerif-31"/>
      </g>
     </g>
    </g>
    <g id="xtick_3">
     <g id="line2d_3">
      <g>
       <use xlink:href="#ma4335721a3" x="193.035521" y="331.36" style="stroke: #000000; stroke-width: 0.8"/>
      </g>
     </g>
     <g id="text_3">
      <!-- 2 -->
      <g transform="translate(189.536146 346.718281) scale(0.11 -0.11)">
       <defs>
        <path id="DejaVuSerif-32" d="M 819 3553 
L 469 3553 
L 469 4384 
Q 803 4563 1142 4656 
Q 1481 4750 1806 4750 
Q 2534 4750 2956 4397 
Q 3378 4044 3378 3438 
Q 3378 2753 2422 1800 
Q 2347 1728 2309 1691 
L 1131 513 
L 3078 513 
L 3078 1088 
L 3444 1088 
L 3444 0 
L 434 0 
L 434 341 
L 1850 1753 
Q 2319 2222 2519 2614 
Q 2719 3006 2719 3438 
Q 2719 3909 2473 4175 
Q 2228 4441 1797 4441 
Q 1350 4441 1106 4219 
Q 863 3997 819 3553 
z
" transform="scale(0.015625)"/>
       </defs>
       <use xlink:href="#DejaVuSerif-32"/>
      </g>
     </g>
    </g>
    <g id="text_4">
     <!-- $x$ -->
     <g transform="translate(136.7825 361.364219) scale(0.11 -0.11)">
      <defs>
       <path id="Cmmi10-78" d="M 500 184 
Q 613 97 819 97 
Q 1019 97 1172 289 
Q 1325 481 1381 709 
L 1672 1844 
Q 1741 2153 1741 2266 
Q 1741 2425 1652 2544 
Q 1563 2663 1403 2663 
Q 1200 2663 1022 2536 
Q 844 2409 722 2214 
Q 600 2019 550 1819 
Q 538 1778 500 1778 
L 422 1778 
Q 372 1778 372 1838 
L 372 1856 
Q 434 2094 584 2320 
Q 734 2547 951 2687 
Q 1169 2828 1416 2828 
Q 1650 2828 1839 2703 
Q 2028 2578 2106 2363 
Q 2216 2559 2386 2693 
Q 2556 2828 2759 2828 
Q 2897 2828 3040 2779 
Q 3184 2731 3275 2631 
Q 3366 2531 3366 2381 
Q 3366 2219 3261 2101 
Q 3156 1984 2994 1984 
Q 2891 1984 2822 2050 
Q 2753 2116 2753 2216 
Q 2753 2350 2845 2451 
Q 2938 2553 3066 2572 
Q 2950 2663 2747 2663 
Q 2541 2663 2389 2472 
Q 2238 2281 2175 2047 
L 1894 916 
Q 1825 659 1825 494 
Q 1825 331 1917 214 
Q 2009 97 2163 97 
Q 2463 97 2698 361 
Q 2934 625 3009 941 
Q 3022 978 3059 978 
L 3138 978 
Q 3163 978 3178 961 
Q 3194 944 3194 922 
Q 3194 916 3188 903 
Q 3097 522 2806 225 
Q 2516 -72 2150 -72 
Q 1916 -72 1727 54 
Q 1538 181 1459 397 
Q 1359 209 1182 68 
Q 1006 -72 806 -72 
Q 669 -72 523 -23 
Q 378 25 287 125 
Q 197 225 197 378 
Q 197 528 301 651 
Q 406 775 563 775 
Q 669 775 741 711 
Q 813 647 813 544 
Q 813 409 723 309 
Q 634 209 500 184 
z
" transform="scale(0.015625)"/>
      </defs>
      <use xlink:href="#Cmmi10-78" transform="translate(0 0.8125)"/>
     </g>
    </g>
   </g>
   <g id="matplotlib.axis_2">
    <g id="ytick_1">
     <g id="line2d_4">
      <defs>
       <path id="m18c3d6e5af" d="M 0 0 
L -3.5 0 
" style="stroke: #000000; stroke-width: 0.8"/>
      </defs>
      <g>
       <use xlink:href="#m18c3d6e5af" x="49.765365" y="310.134792" style="stroke: #000000; stroke-width: 0.8"/>
      </g>
     </g>
     <g id="text_5">
      <!-- −1 -->
      <g transform="translate(26.548958 314.313932) scale(0.11 -0.11)">
       <defs>
        <path id="DejaVuSerif-2212" d="M 678 2259 
L 4684 2259 
L 4684 1753 
L 678 1753 
L 678 2259 
z
" transform="scale(0.015625)"/>
       </defs>
       <use xlink:href="#DejaVuSerif-2212"/>
       <use xlink:href="#DejaVuSerif-31" transform="translate(83.789062 0)"/>
      </g>
     </g>
    </g>
    <g id="ytick_2">
     <g id="line2d_5">
      <g>
       <use xlink:href="#m18c3d6e5af" x="49.765365" y="257.071771" style="stroke: #000000; stroke-width: 0.8"/>
      </g>
     </g>
     <g id="text_6">
      <!-- 0 -->
      <g transform="translate(35.766615 261.250911) scale(0.11 -0.11)">
       <use xlink:href="#DejaVuSerif-30"/>
      </g>
     </g>
    </g>
    <g id="ytick_3">
     <g id="line2d_6">
      <g>
       <use xlink:href="#m18c3d6e5af" x="49.765365" y="204.00875" style="stroke: #000000; stroke-width: 0.8"/>
      </g>
     </g>
     <g id="text_7">
      <!-- 1 -->
      <g transform="translate(35.766615 208.187891) scale(0.11 -0.11)">
       <use xlink:href="#DejaVuSerif-31"/>
      </g>
     </g>
    </g>
    <g id="ytick_4">
     <g id="line2d_7">
      <g>
       <use xlink:href="#m18c3d6e5af" x="49.765365" y="150.945729" style="stroke: #000000; stroke-width: 0.8"/>
      </g>
     </g>
     <g id="text_8">
      <!-- 2 -->
      <g transform="translate(35.766615 155.12487) scale(0.11 -0.11)">
       <use xlink:href="#DejaVuSerif-32"/>
      </g>
     </g>
    </g>
    <g id="ytick_5">
     <g id="line2d_8">
      <g>
       <use xlink:href="#m18c3d6e5af" x="49.765365" y="97.882708" style="stroke: #000000; stroke-width: 0.8"/>
      </g>
     </g>
     <g id="text_9">
      <!-- 3 -->
      <g transform="translate(35.766615 102.061849) scale(0.11 -0.11)">
       <defs>
        <path id="DejaVuSerif-33" d="M 622 4469 
Q 988 4606 1323 4678 
Q 1659 4750 1953 4750 
Q 2638 4750 3022 4454 
Q 3406 4159 3406 3634 
Q 3406 3213 3140 2930 
Q 2875 2647 2388 2547 
Q 2963 2466 3280 2130 
Q 3597 1794 3597 1259 
Q 3597 606 3158 257 
Q 2719 -91 1894 -91 
Q 1528 -91 1179 -12 
Q 831 66 488 225 
L 488 1131 
L 838 1131 
Q 869 681 1141 450 
Q 1413 219 1906 219 
Q 2384 219 2661 495 
Q 2938 772 2938 1253 
Q 2938 1803 2653 2086 
Q 2369 2369 1819 2369 
L 1522 2369 
L 1522 2688 
L 1678 2688 
Q 2225 2688 2498 2914 
Q 2772 3141 2772 3597 
Q 2772 4006 2547 4223 
Q 2322 4441 1900 4441 
Q 1478 4441 1245 4241 
Q 1013 4041 972 3647 
L 622 3647 
L 622 4469 
z
" transform="scale(0.015625)"/>
       </defs>
       <use xlink:href="#DejaVuSerif-33"/>
      </g>
     </g>
    </g>
    <g id="text_10">
     <!-- $y$ -->
     <g transform="translate(20.238958 206.75875) rotate(-90) scale(0.11 -0.11)">
      <defs>
       <path id="Cmmi10-79" d="M 538 -916 
Q 672 -1147 1006 -1147 
Q 1309 -1147 1531 -934 
Q 1753 -722 1889 -420 
Q 2025 -119 2100 197 
Q 1816 -72 1484 -72 
Q 1231 -72 1053 15 
Q 875 103 776 276 
Q 678 450 678 697 
Q 678 906 734 1126 
Q 791 1347 892 1617 
Q 994 1888 1069 2088 
Q 1153 2322 1153 2472 
Q 1153 2663 1013 2663 
Q 759 2663 595 2402 
Q 431 2141 353 1819 
Q 341 1778 300 1778 
L 225 1778 
Q 172 1778 172 1838 
L 172 1856 
Q 275 2238 487 2533 
Q 700 2828 1025 2828 
Q 1253 2828 1411 2678 
Q 1569 2528 1569 2297 
Q 1569 2178 1516 2047 
Q 1488 1969 1388 1706 
Q 1288 1444 1234 1272 
Q 1181 1100 1147 934 
Q 1113 769 1113 603 
Q 1113 391 1203 244 
Q 1294 97 1491 97 
Q 1888 97 2203 581 
L 2688 2553 
Q 2709 2638 2787 2698 
Q 2866 2759 2956 2759 
Q 3034 2759 3092 2709 
Q 3150 2659 3150 2578 
Q 3150 2541 3144 2528 
L 2509 -19 
Q 2425 -347 2200 -647 
Q 1975 -947 1658 -1130 
Q 1341 -1313 997 -1313 
Q 831 -1313 668 -1248 
Q 506 -1184 406 -1056 
Q 306 -928 306 -756 
Q 306 -581 409 -453 
Q 513 -325 684 -325 
Q 788 -325 858 -389 
Q 928 -453 928 -556 
Q 928 -703 818 -812 
Q 709 -922 563 -922 
Q 556 -919 550 -917 
Q 544 -916 538 -916 
z
" transform="scale(0.015625)"/>
      </defs>
      <use xlink:href="#Cmmi10-79" transform="translate(0 0.8125)"/>
     </g>
    </g>
   </g>
   <g id="patch_3">
    <path d="M 86.909479 257.071771 
L 139.9725 150.945729 
L 193.035521 150.945729 
z
" clip-path="url(#p840b2224f7)" style="fill: #3b6ea5; opacity: 0.18; stroke: #3b6ea5; stroke-width: 2; stroke-linejoin: miter"/>
   </g>
   <g id="patch_4">
    <path d="M 49.765365 331.36 
L 49.765365 76.6575 
" style="fill: none; stroke: #000000; stroke-width: 0.8; stroke-linejoin: miter; stroke-linecap: square"/>
   </g>
   <g id="patch_5">
    <path d="M 49.765365 331.36 
L 230.179635 331.36 
" style="fill: none; stroke: #000000; stroke-width: 0.8; stroke-linejoin: miter; stroke-linecap: square"/>
   </g>
   <g id="text_11">
    <!-- (0,0) -->
    <g transform="translate(72.051833 272.990677) scale(0.1 -0.1)">
     <defs>
      <path id="DejaVuSansMono-28" d="M 2766 4856 
Q 2350 4144 2145 3436 
Q 1941 2728 1941 2009 
Q 1941 1294 2145 584 
Q 2350 -125 2766 -844 
L 2266 -844 
Q 1794 -100 1562 604 
Q 1331 1309 1331 2009 
Q 1331 2706 1562 3412 
Q 1794 4119 2266 4856 
L 2766 4856 
z
" transform="scale(0.015625)"/>
      <path id="DejaVuSansMono-30" d="M 1509 2344 
Q 1509 2516 1629 2641 
Q 1750 2766 1919 2766 
Q 2094 2766 2219 2641 
Q 2344 2516 2344 2344 
Q 2344 2169 2220 2047 
Q 2097 1925 1919 1925 
Q 1744 1925 1626 2044 
Q 1509 2163 1509 2344 
z
M 1925 4250 
Q 1484 4250 1267 3775 
Q 1050 3300 1050 2328 
Q 1050 1359 1267 884 
Q 1484 409 1925 409 
Q 2369 409 2586 884 
Q 2803 1359 2803 2328 
Q 2803 3300 2586 3775 
Q 2369 4250 1925 4250 
z
M 1925 4750 
Q 2672 4750 3055 4137 
Q 3438 3525 3438 2328 
Q 3438 1134 3055 521 
Q 2672 -91 1925 -91 
Q 1178 -91 797 521 
Q 416 1134 416 2328 
Q 416 3525 797 4137 
Q 1178 4750 1925 4750 
z
" transform="scale(0.015625)"/>
      <path id="DejaVuSansMono-2c" d="M 1569 947 
L 2356 947 
L 2356 300 
L 1741 -897 
L 1259 -897 
L 1569 300 
L 1569 947 
z
" transform="scale(0.015625)"/>
      <path id="DejaVuSansMono-29" d="M 1088 4856 
L 1588 4856 
Q 2059 4119 2290 3412 
Q 2522 2706 2522 2009 
Q 2522 1306 2290 600 
Q 2059 -106 1588 -844 
L 1088 -844 
Q 1503 -119 1708 590 
Q 1913 1300 1913 2009 
Q 1913 2722 1708 3431 
Q 1503 4141 1088 4856 
z
" transform="scale(0.015625)"/>
     </defs>
     <use xlink:href="#DejaVuSansMono-28"/>
     <use xlink:href="#DejaVuSansMono-30" transform="translate(60.205078 0)"/>
     <use xlink:href="#DejaVuSansMono-2c" transform="translate(120.410156 0)"/>
     <use xlink:href="#DejaVuSansMono-30" transform="translate(180.615234 0)"/>
     <use xlink:href="#DejaVuSansMono-29" transform="translate(240.820312 0)"/>
    </g>
   </g>
   <g id="text_12">
    <!-- (1,2) -->
    <g transform="translate(117.686031 144.578167) scale(0.1 -0.1)">
     <defs>
      <path id="DejaVuSansMono-31" d="M 844 531 
L 1825 531 
L 1825 4097 
L 769 3859 
L 769 4434 
L 1819 4666 
L 2450 4666 
L 2450 531 
L 3419 531 
L 3419 0 
L 844 0 
L 844 531 
z
" transform="scale(0.015625)"/>
      <path id="DejaVuSansMono-32" d="M 1166 531 
L 3309 531 
L 3309 0 
L 475 0 
L 475 531 
Q 1059 1147 1496 1619 
Q 1934 2091 2100 2284 
Q 2413 2666 2522 2902 
Q 2631 3138 2631 3384 
Q 2631 3775 2401 3997 
Q 2172 4219 1772 4219 
Q 1488 4219 1175 4116 
Q 863 4013 513 3803 
L 513 4441 
Q 834 4594 1145 4672 
Q 1456 4750 1759 4750 
Q 2444 4750 2861 4386 
Q 3278 4022 3278 3431 
Q 3278 3131 3139 2831 
Q 3000 2531 2688 2169 
Q 2513 1966 2180 1606 
Q 1847 1247 1166 531 
z
" transform="scale(0.015625)"/>
     </defs>
     <use xlink:href="#DejaVuSansMono-28"/>
     <use xlink:href="#DejaVuSansMono-31" transform="translate(60.205078 0)"/>
     <use xlink:href="#DejaVuSansMono-2c" transform="translate(120.410156 0)"/>
     <use xlink:href="#DejaVuSansMono-32" transform="translate(180.615234 0)"/>
     <use xlink:href="#DejaVuSansMono-29" transform="translate(240.820312 0)"/>
    </g>
   </g>
   <g id="text_13">
    <!-- (2,2) -->
    <g transform="translate(199.403083 144.578167) scale(0.1 -0.1)">
     <use xlink:href="#DejaVuSansMono-28"/>
     <use xlink:href="#DejaVuSansMono-32" transform="translate(60.205078 0)"/>
     <use xlink:href="#DejaVuSansMono-2c" transform="translate(120.410156 0)"/>
     <use xlink:href="#DejaVuSansMono-32" transform="translate(180.615234 0)"/>
     <use xlink:href="#DejaVuSansMono-29" transform="translate(240.820312 0)"/>
    </g>
   </g>
   <g id="text_14">
    <g id="patch_6">
     <path d="M 66.0825 118.823333 
L 213.8625 118.823333 
Q 217.0125 118.823333 217.0125 115.673333 
L 217.0125 86.60699 
Q 217.0125 83.45699 213.8625 83.45699 
L 66.0825 83.45699 
Q 62.9325 83.45699 62.9325 86.60699 
L 62.9325 115.673333 
Q 62.9325 118.823333 66.0825 118.823333 
z
" style="fill: #ffffff; opacity: 0.9; stroke: #3b6ea5; stroke-linejoin: miter"/>
    </g>
    <!-- 1 face: all of $T_1$ -->
    <g style="fill: #204060" transform="translate(105.9075 93.445583) scale(0.09 -0.09)">
     <defs>
      <path id="DejaVuSerif-20" transform="scale(0.015625)"/>
      <path id="DejaVuSerif-66" d="M 2753 4078 
L 2450 4078 
Q 2447 4313 2317 4434 
Q 2188 4556 1941 4556 
Q 1619 4556 1487 4379 
Q 1356 4203 1356 3750 
L 1356 3322 
L 2284 3322 
L 2284 2988 
L 1356 2988 
L 1356 331 
L 2094 331 
L 2094 0 
L 231 0 
L 231 331 
L 781 331 
L 781 2988 
L 231 2988 
L 231 3322 
L 781 3322 
L 781 3738 
Q 781 4294 1070 4578 
Q 1359 4863 1919 4863 
Q 2128 4863 2337 4825 
Q 2547 4788 2753 4709 
L 2753 4078 
z
" transform="scale(0.015625)"/>
      <path id="DejaVuSerif-61" d="M 2547 1044 
L 2547 1747 
L 1806 1747 
Q 1378 1747 1168 1562 
Q 959 1378 959 997 
Q 959 650 1171 447 
Q 1384 244 1747 244 
Q 2106 244 2326 466 
Q 2547 688 2547 1044 
z
M 3122 2075 
L 3122 331 
L 3634 331 
L 3634 0 
L 2547 0 
L 2547 359 
Q 2356 128 2106 18 
Q 1856 -91 1522 -91 
Q 969 -91 644 203 
Q 319 497 319 997 
Q 319 1513 691 1797 
Q 1063 2081 1741 2081 
L 2547 2081 
L 2547 2309 
Q 2547 2688 2317 2895 
Q 2088 3103 1672 3103 
Q 1328 3103 1125 2947 
Q 922 2791 872 2484 
L 575 2484 
L 575 3156 
Q 875 3284 1158 3348 
Q 1441 3413 1709 3413 
Q 2400 3413 2761 3070 
Q 3122 2728 3122 2075 
z
" transform="scale(0.015625)"/>
      <path id="DejaVuSerif-63" d="M 3291 997 
Q 3169 466 2822 187 
Q 2475 -91 1925 -91 
Q 1200 -91 759 389 
Q 319 869 319 1663 
Q 319 2459 759 2936 
Q 1200 3413 1925 3413 
Q 2241 3413 2553 3339 
Q 2866 3266 3181 3116 
L 3181 2266 
L 2847 2266 
Q 2781 2703 2561 2903 
Q 2341 3103 1931 3103 
Q 1466 3103 1228 2742 
Q 991 2381 991 1663 
Q 991 944 1227 581 
Q 1463 219 1931 219 
Q 2303 219 2525 412 
Q 2747 606 2828 997 
L 3291 997 
z
" transform="scale(0.015625)"/>
      <path id="DejaVuSerif-65" d="M 3469 1600 
L 991 1600 
L 991 1575 
Q 991 903 1244 561 
Q 1497 219 1991 219 
Q 2369 219 2611 417 
Q 2853 616 2950 1006 
L 3413 1006 
Q 3275 459 2904 184 
Q 2534 -91 1931 -91 
Q 1203 -91 761 389 
Q 319 869 319 1663 
Q 319 2450 753 2931 
Q 1188 3413 1894 3413 
Q 2647 3413 3050 2948 
Q 3453 2484 3469 1600 
z
M 2791 1931 
Q 2772 2513 2545 2808 
Q 2319 3103 1894 3103 
Q 1497 3103 1269 2806 
Q 1041 2509 991 1931 
L 2791 1931 
z
" transform="scale(0.015625)"/>
      <path id="DejaVuSerif-3a" d="M 666 325 
Q 666 500 786 622 
Q 906 744 1081 744 
Q 1256 744 1376 622 
Q 1497 500 1497 325 
Q 1497 150 1378 29 
Q 1259 -91 1081 -91 
Q 903 -91 784 29 
Q 666 150 666 325 
z
M 666 2363 
Q 666 2538 786 2658 
Q 906 2778 1081 2778 
Q 1259 2778 1378 2659 
Q 1497 2541 1497 2363 
Q 1497 2184 1378 2065 
Q 1259 1947 1081 1947 
Q 906 1947 786 2067 
Q 666 2188 666 2363 
z
" transform="scale(0.015625)"/>
      <path id="DejaVuSerif-6c" d="M 1313 331 
L 1856 331 
L 1856 0 
L 184 0 
L 184 331 
L 738 331 
L 738 4531 
L 184 4531 
L 184 4863 
L 1313 4863 
L 1313 331 
z
" transform="scale(0.015625)"/>
      <path id="DejaVuSerif-6f" d="M 1925 219 
Q 2388 219 2623 584 
Q 2859 950 2859 1663 
Q 2859 2375 2623 2739 
Q 2388 3103 1925 3103 
Q 1463 3103 1227 2739 
Q 991 2375 991 1663 
Q 991 950 1228 584 
Q 1466 219 1925 219 
z
M 1925 -91 
Q 1200 -91 759 389 
Q 319 869 319 1663 
Q 319 2456 758 2934 
Q 1197 3413 1925 3413 
Q 2653 3413 3092 2934 
Q 3531 2456 3531 1663 
Q 3531 869 3092 389 
Q 2653 -91 1925 -91 
z
" transform="scale(0.015625)"/>
      <path id="Cmmi10-54" d="M 294 84 
Q 297 100 308 140 
Q 319 181 336 203 
Q 353 225 384 225 
Q 934 225 1113 256 
Q 1284 300 1319 441 
L 2194 3956 
Q 2222 4034 2222 4097 
Q 2222 4147 1997 4147 
L 1625 4147 
Q 1197 4147 964 4015 
Q 731 3884 622 3668 
Q 513 3453 341 2963 
Q 319 2906 275 2906 
L 219 2906 
Q 153 2906 153 2988 
L 609 4313 
Q 622 4372 672 4372 
L 4453 4372 
Q 4519 4372 4519 4288 
L 4306 2963 
Q 4306 2944 4284 2925 
Q 4263 2906 4244 2906 
L 4184 2906 
Q 4122 2906 4122 2988 
Q 4191 3441 4191 3628 
Q 4191 3853 4097 3968 
Q 4003 4084 3853 4115 
Q 3703 4147 3463 4147 
L 3084 4147 
Q 2913 4147 2853 4115 
Q 2794 4084 2753 3928 
L 1875 416 
Q 1872 403 1870 390 
Q 1869 378 1863 359 
Q 1863 278 1959 256 
Q 2125 225 2669 225 
Q 2731 225 2731 141 
Q 2709 50 2696 25 
Q 2684 0 2625 0 
L 359 0 
Q 294 0 294 84 
z
" transform="scale(0.015625)"/>
      <path id="Cmr10-31" d="M 594 0 
L 594 225 
Q 1394 225 1394 428 
L 1394 3788 
Q 1063 3628 556 3628 
L 556 3853 
Q 1341 3853 1741 4263 
L 1831 4263 
Q 1853 4263 1873 4245 
Q 1894 4228 1894 4206 
L 1894 428 
Q 1894 225 2694 225 
L 2694 0 
L 594 0 
z
" transform="scale(0.015625)"/>
     </defs>
     <use xlink:href="#DejaVuSerif-31" transform="translate(0 0.015625)"/>
     <use xlink:href="#DejaVuSerif-20" transform="translate(63.623047 0.015625)"/>
     <use xlink:href="#DejaVuSerif-66" transform="translate(95.410156 0.015625)"/>
     <use xlink:href="#DejaVuSerif-61" transform="translate(132.421875 0.015625)"/>
     <use xlink:href="#DejaVuSerif-63" transform="translate(192.041016 0.015625)"/>
     <use xlink:href="#DejaVuSerif-65" transform="translate(248.046875 0.015625)"/>
     <use xlink:href="#DejaVuSerif-3a" transform="translate(307.226562 0.015625)"/>
     <use xlink:href="#DejaVuSerif-20" transform="translate(340.917969 0.015625)"/>
     <use xlink:href="#DejaVuSerif-61" transform="translate(372.705078 0.015625)"/>
     <use xlink:href="#DejaVuSerif-6c" transform="translate(432.324219 0.015625)"/>
     <use xlink:href="#DejaVuSerif-6c" transform="translate(464.306641 0.015625)"/>
     <use xlink:href="#DejaVuSerif-20" transform="translate(496.289062 0.015625)"/>
     <use xlink:href="#DejaVuSerif-6f" transform="translate(528.076172 0.015625)"/>
     <use xlink:href="#DejaVuSerif-66" transform="translate(588.28125 0.015625)"/>
     <use xlink:href="#DejaVuSerif-20" transform="translate(625.292969 0.015625)"/>
     <use xlink:href="#Cmmi10-54" transform="translate(657.080078 0.015625)"/>
     <use xlink:href="#Cmr10-31" transform="translate(715.478516 -16.990625) scale(0.7)"/>
    </g>
    <!-- (2 convex edges $\Rightarrow$ closed form, -->
    <g style="fill: #204060" transform="translate(66.0825 103.525302) scale(0.09 -0.09)">
     <defs>
      <path id="DejaVuSerif-28" d="M 2041 -997 
Q 1281 -656 893 83 
Q 506 822 506 1931 
Q 506 3044 893 3783 
Q 1281 4522 2041 4863 
L 2041 4556 
Q 1559 4225 1350 3623 
Q 1141 3022 1141 1931 
Q 1141 844 1350 242 
Q 1559 -359 2041 -691 
L 2041 -997 
z
" transform="scale(0.015625)"/>
      <path id="DejaVuSerif-6e" d="M 263 0 
L 263 331 
L 781 331 
L 781 2988 
L 231 2988 
L 231 3322 
L 1356 3322 
L 1356 2731 
Q 1516 3069 1770 3241 
Q 2025 3413 2363 3413 
Q 2913 3413 3172 3097 
Q 3431 2781 3431 2113 
L 3431 331 
L 3944 331 
L 3944 0 
L 2356 0 
L 2356 331 
L 2853 331 
L 2853 1931 
Q 2853 2541 2703 2767 
Q 2553 2994 2175 2994 
Q 1775 2994 1565 2701 
Q 1356 2409 1356 1850 
L 1356 331 
L 1856 331 
L 1856 0 
L 263 0 
z
" transform="scale(0.015625)"/>
      <path id="DejaVuSerif-76" d="M 1581 0 
L 359 2988 
L -19 2988 
L -19 3322 
L 1509 3322 
L 1509 2988 
L 978 2988 
L 1913 703 
L 2847 2988 
L 2350 2988 
L 2350 3322 
L 3597 3322 
L 3597 2988 
L 3225 2988 
L 2003 0 
L 1581 0 
z
" transform="scale(0.015625)"/>
      <path id="DejaVuSerif-78" d="M 1863 2028 
L 2559 2988 
L 2113 2988 
L 2113 3322 
L 3391 3322 
L 3391 2988 
L 2950 2988 
L 2059 1759 
L 3097 331 
L 3531 331 
L 3531 0 
L 1997 0 
L 1997 331 
L 2419 331 
L 1697 1325 
L 972 331 
L 1403 331 
L 1403 0 
L 141 0 
L 141 331 
L 581 331 
L 1497 1594 
L 488 2988 
L 78 2988 
L 78 3322 
L 1563 3322 
L 1563 2988 
L 1166 2988 
L 1863 2028 
z
" transform="scale(0.015625)"/>
      <path id="DejaVuSerif-64" d="M 3359 331 
L 3909 331 
L 3909 0 
L 2784 0 
L 2784 519 
Q 2616 206 2355 57 
Q 2094 -91 1709 -91 
Q 1097 -91 708 395 
Q 319 881 319 1663 
Q 319 2444 706 2928 
Q 1094 3413 1709 3413 
Q 2094 3413 2355 3264 
Q 2616 3116 2784 2803 
L 2784 4531 
L 2241 4531 
L 2241 4863 
L 3359 4863 
L 3359 331 
z
M 2784 1497 
L 2784 1825 
Q 2784 2422 2554 2737 
Q 2325 3053 1888 3053 
Q 1444 3053 1217 2703 
Q 991 2353 991 1663 
Q 991 975 1217 622 
Q 1444 269 1888 269 
Q 2325 269 2554 583 
Q 2784 897 2784 1497 
z
" transform="scale(0.015625)"/>
      <path id="DejaVuSerif-67" d="M 3359 2988 
L 3359 72 
Q 3359 -644 2965 -1033 
Q 2572 -1422 1844 -1422 
Q 1516 -1422 1216 -1362 
Q 916 -1303 641 -1184 
L 641 -488 
L 941 -488 
Q 997 -813 1206 -963 
Q 1416 -1113 1806 -1113 
Q 2313 -1113 2548 -827 
Q 2784 -541 2784 72 
L 2784 519 
Q 2616 206 2355 57 
Q 2094 -91 1709 -91 
Q 1097 -91 708 395 
Q 319 881 319 1663 
Q 319 2444 706 2928 
Q 1094 3413 1709 3413 
Q 2094 3413 2355 3264 
Q 2616 3116 2784 2803 
L 2784 3322 
L 3909 3322 
L 3909 2988 
L 3359 2988 
z
M 2784 1825 
Q 2784 2422 2554 2737 
Q 2325 3053 1888 3053 
Q 1444 3053 1217 2703 
Q 991 2353 991 1663 
Q 991 975 1217 622 
Q 1444 269 1888 269 
Q 2325 269 2554 583 
Q 2784 897 2784 1497 
L 2784 1825 
z
" transform="scale(0.015625)"/>
      <path id="DejaVuSerif-73" d="M 359 184 
L 359 959 
L 691 959 
Q 703 588 923 403 
Q 1144 219 1575 219 
Q 1963 219 2166 364 
Q 2369 509 2369 788 
Q 2369 1006 2220 1140 
Q 2072 1275 1594 1428 
L 1178 1569 
Q 750 1706 558 1912 
Q 366 2119 366 2438 
Q 366 2894 700 3153 
Q 1034 3413 1625 3413 
Q 1888 3413 2178 3344 
Q 2469 3275 2778 3144 
L 2778 2419 
L 2447 2419 
Q 2434 2741 2221 2922 
Q 2009 3103 1644 3103 
Q 1281 3103 1095 2975 
Q 909 2847 909 2591 
Q 909 2381 1050 2254 
Q 1191 2128 1613 1997 
L 2069 1856 
Q 2541 1709 2748 1489 
Q 2956 1269 2956 922 
Q 2956 450 2595 179 
Q 2234 -91 1600 -91 
Q 1278 -91 972 -22 
Q 666 47 359 184 
z
" transform="scale(0.015625)"/>
      <path id="Cmsy10-29" d="M 481 850 
Q 428 850 393 890 
Q 359 931 359 978 
Q 359 1031 393 1068 
Q 428 1106 481 1106 
L 4634 1106 
Q 5009 1416 5453 1600 
Q 5009 1784 4634 2094 
L 481 2094 
Q 428 2094 393 2131 
Q 359 2169 359 2222 
Q 359 2269 393 2309 
Q 428 2350 481 2350 
L 4353 2350 
Q 4194 2516 3950 2850 
Q 3706 3184 3706 3291 
Q 3706 3319 3723 3339 
Q 3741 3359 3769 3359 
L 3897 3359 
Q 3938 3359 3950 3322 
Q 4109 3009 4314 2750 
Q 4519 2491 4787 2272 
Q 5056 2053 5353 1906 
Q 5650 1759 5991 1672 
Q 6034 1644 6034 1600 
Q 6034 1550 5991 1538 
Q 5325 1369 4792 934 
Q 4259 500 3950 -122 
Q 3938 -159 3897 -159 
L 3769 -159 
Q 3706 -159 3706 -91 
Q 3706 -16 3832 179 
Q 3959 375 4111 567 
Q 4263 759 4353 850 
L 481 850 
z
" transform="scale(0.015625)"/>
      <path id="DejaVuSerif-72" d="M 3059 3328 
L 3059 2497 
L 2728 2497 
Q 2713 2744 2591 2866 
Q 2469 2988 2234 2988 
Q 1809 2988 1582 2694 
Q 1356 2400 1356 1850 
L 1356 331 
L 2022 331 
L 2022 0 
L 263 0 
L 263 331 
L 781 331 
L 781 2994 
L 231 2994 
L 231 3322 
L 1356 3322 
L 1356 2731 
Q 1525 3078 1790 3245 
Q 2056 3413 2438 3413 
Q 2578 3413 2733 3391 
Q 2888 3369 3059 3328 
z
" transform="scale(0.015625)"/>
      <path id="DejaVuSerif-6d" d="M 3316 2675 
Q 3481 3041 3739 3227 
Q 3997 3413 4341 3413 
Q 4863 3413 5119 3089 
Q 5375 2766 5375 2113 
L 5375 331 
L 5894 331 
L 5894 0 
L 4300 0 
L 4300 331 
L 4800 331 
L 4800 2047 
Q 4800 2556 4650 2772 
Q 4500 2988 4153 2988 
Q 3769 2988 3567 2697 
Q 3366 2406 3366 1850 
L 3366 331 
L 3866 331 
L 3866 0 
L 2291 0 
L 2291 331 
L 2791 331 
L 2791 2069 
Q 2791 2566 2641 2777 
Q 2491 2988 2144 2988 
Q 1759 2988 1557 2697 
Q 1356 2406 1356 1850 
L 1356 331 
L 1856 331 
L 1856 0 
L 263 0 
L 263 331 
L 781 331 
L 781 2994 
L 231 2994 
L 231 3322 
L 1356 3322 
L 1356 2731 
Q 1516 3063 1762 3238 
Q 2009 3413 2322 3413 
Q 2709 3413 2968 3220 
Q 3228 3028 3316 2675 
z
" transform="scale(0.015625)"/>
      <path id="DejaVuSerif-2c" d="M 231 -622 
Q 525 -406 662 -114 
Q 800 178 800 594 
L 800 709 
L 1416 709 
Q 1391 175 1164 -208 
Q 938 -591 481 -872 
L 231 -622 
z
" transform="scale(0.015625)"/>
     </defs>
     <use xlink:href="#DejaVuSerif-28" transform="translate(0 0.015625)"/>
     <use xlink:href="#DejaVuSerif-32" transform="translate(39.013672 0.015625)"/>
     <use xlink:href="#DejaVuSerif-20" transform="translate(102.636719 0.015625)"/>
     <use xlink:href="#DejaVuSerif-63" transform="translate(134.423828 0.015625)"/>
     <use xlink:href="#DejaVuSerif-6f" transform="translate(190.429688 0.015625)"/>
     <use xlink:href="#DejaVuSerif-6e" transform="translate(250.634766 0.015625)"/>
     <use xlink:href="#DejaVuSerif-76" transform="translate(315.039062 0.015625)"/>
     <use xlink:href="#DejaVuSerif-65" transform="translate(371.533203 0.015625)"/>
     <use xlink:href="#DejaVuSerif-78" transform="translate(430.712891 0.015625)"/>
     <use xlink:href="#DejaVuSerif-20" transform="translate(487.109375 0.015625)"/>
     <use xlink:href="#DejaVuSerif-65" transform="translate(518.896484 0.015625)"/>
     <use xlink:href="#DejaVuSerif-64" transform="translate(578.076172 0.015625)"/>
     <use xlink:href="#DejaVuSerif-67" transform="translate(642.089844 0.015625)"/>
     <use xlink:href="#DejaVuSerif-65" transform="translate(706.103516 0.015625)"/>
     <use xlink:href="#DejaVuSerif-73" transform="translate(765.283203 0.015625)"/>
     <use xlink:href="#DejaVuSerif-20" transform="translate(816.601562 0.015625)"/>
     <use xlink:href="#Cmsy10-29" transform="translate(865.947266 0.015625)"/>
     <use xlink:href="#DejaVuSerif-20" transform="translate(983.505859 0.015625)"/>
     <use xlink:href="#DejaVuSerif-63" transform="translate(1015.292969 0.015625)"/>
     <use xlink:href="#DejaVuSerif-6c" transform="translate(1071.298828 0.015625)"/>
     <use xlink:href="#DejaVuSerif-6f" transform="translate(1103.28125 0.015625)"/>
     <use xlink:href="#DejaVuSerif-73" transform="translate(1163.486328 0.015625)"/>
     <use xlink:href="#DejaVuSerif-65" transform="translate(1214.804688 0.015625)"/>
     <use xlink:href="#DejaVuSerif-64" transform="translate(1273.984375 0.015625)"/>
     <use xlink:href="#DejaVuSerif-20" transform="translate(1337.998047 0.015625)"/>
     <use xlink:href="#DejaVuSerif-66" transform="translate(1369.785156 0.015625)"/>
     <use xlink:href="#DejaVuSerif-6f" transform="translate(1406.796875 0.015625)"/>
     <use xlink:href="#DejaVuSerif-72" transform="translate(1467.001953 0.015625)"/>
     <use xlink:href="#DejaVuSerif-6d" transform="translate(1514.804688 0.015625)"/>
     <use xlink:href="#DejaVuSerif-2c" transform="translate(1609.628906 0.015625)"/>
    </g>
    <!-- no subdivision) -->
    <g style="fill: #204060" transform="translate(105.433594 113.801615) scale(0.09 -0.09)">
     <defs>
      <path id="DejaVuSerif-75" d="M 2266 3322 
L 3341 3322 
L 3341 331 
L 3884 331 
L 3884 0 
L 2766 0 
L 2766 588 
Q 2606 256 2353 82 
Q 2100 -91 1766 -91 
Q 1213 -91 952 223 
Q 691 538 691 1209 
L 691 2988 
L 172 2988 
L 172 3322 
L 1269 3322 
L 1269 1388 
Q 1269 781 1417 556 
Q 1566 331 1947 331 
Q 2347 331 2556 625 
Q 2766 919 2766 1478 
L 2766 2988 
L 2266 2988 
L 2266 3322 
z
" transform="scale(0.015625)"/>
      <path id="DejaVuSerif-62" d="M 738 331 
L 738 4531 
L 184 4531 
L 184 4863 
L 1313 4863 
L 1313 2803 
Q 1481 3116 1742 3264 
Q 2003 3413 2388 3413 
Q 3000 3413 3387 2928 
Q 3775 2444 3775 1663 
Q 3775 881 3387 395 
Q 3000 -91 2388 -91 
Q 2003 -91 1742 57 
Q 1481 206 1313 519 
L 1313 0 
L 184 0 
L 184 331 
L 738 331 
z
M 1313 1497 
Q 1313 897 1542 583 
Q 1772 269 2209 269 
Q 2650 269 2876 622 
Q 3103 975 3103 1663 
Q 3103 2353 2876 2703 
Q 2650 3053 2209 3053 
Q 1772 3053 1542 2737 
Q 1313 2422 1313 1825 
L 1313 1497 
z
" transform="scale(0.015625)"/>
      <path id="DejaVuSerif-69" d="M 622 4353 
Q 622 4497 726 4603 
Q 831 4709 978 4709 
Q 1122 4709 1226 4603 
Q 1331 4497 1331 4353 
Q 1331 4206 1228 4103 
Q 1125 4000 978 4000 
Q 831 4000 726 4103 
Q 622 4206 622 4353 
z
M 1356 331 
L 1900 331 
L 1900 0 
L 231 0 
L 231 331 
L 781 331 
L 781 2988 
L 231 2988 
L 231 3322 
L 1356 3322 
L 1356 331 
z
" transform="scale(0.015625)"/>
      <path id="DejaVuSerif-29" d="M 453 -997 
L 453 -691 
Q 934 -359 1145 242 
Q 1356 844 1356 1931 
Q 1356 3022 1145 3623 
Q 934 4225 453 4556 
L 453 4863 
Q 1216 4522 1603 3783 
Q 1991 3044 1991 1931 
Q 1991 822 1603 83 
Q 1216 -656 453 -997 
z
" transform="scale(0.015625)"/>
     </defs>
     <use xlink:href="#DejaVuSerif-6e"/>
     <use xlink:href="#DejaVuSerif-6f" transform="translate(64.404297 0)"/>
     <use xlink:href="#DejaVuSerif-20" transform="translate(124.609375 0)"/>
     <use xlink:href="#DejaVuSerif-73" transform="translate(156.396484 0)"/>
     <use xlink:href="#DejaVuSerif-75" transform="translate(207.714844 0)"/>
     <use xlink:href="#DejaVuSerif-62" transform="translate(272.119141 0)"/>
     <use xlink:href="#DejaVuSerif-64" transform="translate(336.132812 0)"/>
     <use xlink:href="#DejaVuSerif-69" transform="translate(400.146484 0)"/>
     <use xlink:href="#DejaVuSerif-76" transform="translate(432.128906 0)"/>
     <use xlink:href="#DejaVuSerif-69" transform="translate(488.623047 0)"/>
     <use xlink:href="#DejaVuSerif-73" transform="translate(520.605469 0)"/>
     <use xlink:href="#DejaVuSerif-69" transform="translate(571.923828 0)"/>
     <use xlink:href="#DejaVuSerif-6f" transform="translate(603.90625 0)"/>
     <use xlink:href="#DejaVuSerif-6e" transform="translate(664.111328 0)"/>
     <use xlink:href="#DejaVuSerif-29" transform="translate(728.515625 0)"/>
    </g>
   </g>
   <g id="text_15">
    <g id="patch_7">
     <path d="M 22.32 319.612943 
L 257.625 319.612943 
Q 261.825 319.612943 261.825 315.412943 
L 261.825 301.867943 
Q 261.825 297.667943 257.625 297.667943 
L 22.32 297.667943 
Q 18.12 297.667943 18.12 301.867943 
L 18.12 315.412943 
Q 18.12 319.612943 22.32 319.612943 
z
" style="fill: #eef4fa; stroke: #3b6ea5; stroke-linejoin: miter"/>
    </g>
    <!-- $q_1(x,y)=(6{-}4\sqrt{2})\,x^2+(6\sqrt{2}{-}8)\,xy+(3{-}2\sqrt{2})\,y^2$ -->
    <g transform="translate(22.32 312.787943) scale(0.105 -0.105)">
     <defs>
      <path id="Cmmi10-71" d="M 941 -1159 
Q 963 -1019 1025 -1019 
Q 1256 -1019 1389 -981 
Q 1522 -944 1563 -800 
L 1838 288 
Q 1472 -72 1106 -72 
Q 703 -72 473 233 
Q 244 538 244 953 
Q 244 1363 455 1803 
Q 666 2244 1027 2536 
Q 1388 2828 1806 2828 
Q 2000 2828 2156 2712 
Q 2313 2597 2394 2406 
Q 2431 2481 2601 2654 
Q 2772 2828 2841 2828 
Q 2913 2828 2913 2747 
L 2016 -825 
Q 2000 -919 1997 -934 
Q 1997 -1019 2419 -1019 
Q 2450 -1019 2467 -1044 
Q 2484 -1069 2484 -1100 
Q 2463 -1184 2448 -1212 
Q 2434 -1241 2375 -1241 
L 1006 -1241 
Q 941 -1241 941 -1159 
z
M 1119 97 
Q 1344 97 1558 267 
Q 1772 438 1931 672 
L 2291 2113 
Q 2253 2338 2126 2500 
Q 2000 2663 1791 2663 
Q 1575 2663 1389 2486 
Q 1203 2309 1075 2069 
Q 950 1813 836 1366 
Q 722 919 722 672 
Q 722 450 817 273 
Q 913 97 1119 97 
z
" transform="scale(0.015625)"/>
      <path id="Cmr10-28" d="M 1984 -1588 
Q 1628 -1306 1370 -942 
Q 1113 -578 948 -165 
Q 784 247 703 697 
Q 622 1147 622 1600 
Q 622 2059 703 2509 
Q 784 2959 951 3375 
Q 1119 3791 1378 4153 
Q 1638 4516 1984 4788 
Q 1984 4800 2016 4800 
L 2075 4800 
Q 2094 4800 2109 4783 
Q 2125 4766 2125 4744 
Q 2125 4716 2113 4703 
Q 1800 4397 1592 4047 
Q 1384 3697 1257 3301 
Q 1131 2906 1075 2482 
Q 1019 2059 1019 1600 
Q 1019 -434 2106 -1491 
Q 2125 -1509 2125 -1544 
Q 2125 -1559 2108 -1579 
Q 2091 -1600 2075 -1600 
L 2016 -1600 
Q 1984 -1600 1984 -1588 
z
" transform="scale(0.015625)"/>
      <path id="Cmmi10-3b" d="M 634 -1153 
Q 634 -1125 659 -1100 
Q 891 -878 1019 -587 
Q 1147 -297 1147 25 
L 1147 103 
Q 1044 0 891 0 
Q 744 0 641 103 
Q 538 206 538 353 
Q 538 503 641 603 
Q 744 703 891 703 
Q 1119 703 1216 492 
Q 1313 281 1313 25 
Q 1313 -331 1170 -651 
Q 1028 -972 769 -1228 
Q 744 -1241 728 -1241 
Q 697 -1241 665 -1212 
Q 634 -1184 634 -1153 
z
" transform="scale(0.015625)"/>
      <path id="Cmr10-29" d="M 416 -1600 
Q 359 -1600 359 -1544 
Q 359 -1516 372 -1503 
Q 1466 -434 1466 1600 
Q 1466 3634 384 4691 
Q 359 4706 359 4744 
Q 359 4766 376 4783 
Q 394 4800 416 4800 
L 475 4800 
Q 494 4800 506 4788 
Q 966 4425 1272 3906 
Q 1578 3388 1720 2800 
Q 1863 2213 1863 1600 
Q 1863 1147 1786 708 
Q 1709 269 1542 -157 
Q 1375 -584 1119 -945 
Q 863 -1306 506 -1588 
Q 494 -1600 475 -1600 
L 416 -1600 
z
" transform="scale(0.015625)"/>
      <path id="Cmr10-3d" d="M 481 850 
Q 428 850 393 890 
Q 359 931 359 978 
Q 359 1031 393 1068 
Q 428 1106 481 1106 
L 4500 1106 
Q 4547 1106 4581 1068 
Q 4616 1031 4616 978 
Q 4616 931 4581 890 
Q 4547 850 4500 850 
L 481 850 
z
M 481 2094 
Q 428 2094 393 2131 
Q 359 2169 359 2222 
Q 359 2269 393 2309 
Q 428 2350 481 2350 
L 4500 2350 
Q 4547 2350 4581 2309 
Q 4616 2269 4616 2222 
Q 4616 2169 4581 2131 
Q 4547 2094 4500 2094 
L 481 2094 
z
" transform="scale(0.015625)"/>
      <path id="Cmr10-36" d="M 1600 -141 
Q 1203 -141 937 70 
Q 672 281 526 617 
Q 381 953 325 1322 
Q 269 1691 269 2069 
Q 269 2575 466 3084 
Q 663 3594 1045 3928 
Q 1428 4263 1953 4263 
Q 2172 4263 2361 4180 
Q 2550 4097 2658 3936 
Q 2766 3775 2766 3547 
Q 2766 3416 2677 3327 
Q 2588 3238 2456 3238 
Q 2331 3238 2240 3328 
Q 2150 3419 2150 3547 
Q 2150 3672 2240 3762 
Q 2331 3853 2456 3853 
L 2491 3853 
Q 2409 3969 2261 4023 
Q 2113 4078 1953 4078 
Q 1759 4078 1595 3993 
Q 1431 3909 1300 3765 
Q 1169 3622 1081 3448 
Q 994 3275 945 3053 
Q 897 2831 884 2637 
Q 872 2444 872 2150 
Q 984 2413 1190 2580 
Q 1397 2747 1656 2747 
Q 1941 2747 2175 2631 
Q 2409 2516 2578 2311 
Q 2747 2106 2836 1843 
Q 2925 1581 2925 1313 
Q 2925 938 2758 598 
Q 2591 259 2287 59 
Q 1984 -141 1600 -141 
z
M 1600 63 
Q 1847 63 1997 175 
Q 2147 288 2217 473 
Q 2288 659 2305 848 
Q 2322 1038 2322 1313 
Q 2322 1675 2287 1931 
Q 2253 2188 2100 2383 
Q 1947 2578 1631 2578 
Q 1372 2578 1205 2403 
Q 1038 2228 961 1961 
Q 884 1694 884 1447 
Q 884 1363 891 1319 
Q 891 1309 889 1303 
Q 888 1297 884 1288 
Q 884 1013 940 731 
Q 997 450 1156 256 
Q 1316 63 1600 63 
z
" transform="scale(0.015625)"/>
      <path id="Cmsy10-a1" d="M 653 1472 
Q 600 1472 565 1512 
Q 531 1553 531 1600 
Q 531 1647 565 1687 
Q 600 1728 653 1728 
L 4325 1728 
Q 4375 1728 4408 1687 
Q 4441 1647 4441 1600 
Q 4441 1553 4408 1512 
Q 4375 1472 4325 1472 
L 653 1472 
z
" transform="scale(0.015625)"/>
      <path id="Cmr10-34" d="M 178 1056 
L 178 1281 
L 2156 4231 
Q 2178 4263 2222 4263 
L 2316 4263 
Q 2388 4263 2388 4191 
L 2388 1281 
L 3016 1281 
L 3016 1056 
L 2388 1056 
L 2388 428 
Q 2388 297 2575 261 
Q 2763 225 3009 225 
L 3009 0 
L 1247 0 
L 1247 225 
Q 1494 225 1681 261 
Q 1869 297 1869 428 
L 1869 1056 
L 178 1056 
z
M 391 1281 
L 1906 1281 
L 1906 3547 
L 391 1281 
z
" transform="scale(0.015625)"/>
      <path id="Cmex10-70" d="M 2713 -7425 
L 1269 -4063 
L 819 -4409 
L 703 -4294 
L 1619 -3584 
L 2969 -6725 
L 6291 197 
Q 6322 256 6400 256 
Q 6453 256 6490 218 
Q 6528 181 6528 128 
Q 6528 97 6522 84 
L 2950 -7366 
Q 2925 -7425 2853 -7425 
L 2713 -7425 
z
" transform="scale(0.015625)"/>
      <path id="Cmr10-32" d="M 319 0 
L 319 172 
Q 319 188 331 206 
L 1325 1306 
Q 1550 1550 1690 1715 
Q 1831 1881 1968 2097 
Q 2106 2313 2186 2536 
Q 2266 2759 2266 3009 
Q 2266 3272 2169 3511 
Q 2072 3750 1880 3894 
Q 1688 4038 1416 4038 
Q 1138 4038 916 3870 
Q 694 3703 603 3438 
Q 628 3444 672 3444 
Q 816 3444 917 3347 
Q 1019 3250 1019 3097 
Q 1019 2950 917 2848 
Q 816 2747 672 2747 
Q 522 2747 420 2851 
Q 319 2956 319 3097 
Q 319 3338 409 3548 
Q 500 3759 670 3923 
Q 841 4088 1055 4175 
Q 1269 4263 1509 4263 
Q 1875 4263 2190 4108 
Q 2506 3953 2690 3670 
Q 2875 3388 2875 3009 
Q 2875 2731 2753 2481 
Q 2631 2231 2440 2026 
Q 2250 1822 1953 1562 
Q 1656 1303 1563 1216 
L 838 519 
L 1453 519 
Q 1906 519 2211 526 
Q 2516 534 2534 550 
Q 2609 631 2688 1141 
L 2875 1141 
L 2694 0 
L 319 0 
z
" transform="scale(0.015625)"/>
      <path id="Cmr10-2b" d="M 481 1472 
Q 428 1472 393 1512 
Q 359 1553 359 1600 
Q 359 1647 393 1687 
Q 428 1728 481 1728 
L 2363 1728 
L 2363 3616 
Q 2363 3666 2400 3698 
Q 2438 3731 2491 3731 
Q 2538 3731 2578 3698 
Q 2619 3666 2619 3616 
L 2619 1728 
L 4500 1728 
Q 4547 1728 4581 1687 
Q 4616 1647 4616 1600 
Q 4616 1553 4581 1512 
Q 4547 1472 4500 1472 
L 2619 1472 
L 2619 -416 
Q 2619 -466 2578 -498 
Q 2538 -531 2491 -531 
Q 2438 -531 2400 -498 
Q 2363 -466 2363 -416 
L 2363 1472 
L 481 1472 
z
" transform="scale(0.015625)"/>
      <path id="Cmr10-38" d="M 269 972 
Q 269 1356 522 1651 
Q 775 1947 1172 2144 
L 934 2297 
Q 716 2441 578 2680 
Q 441 2919 441 3181 
Q 441 3488 602 3734 
Q 763 3981 1030 4122 
Q 1297 4263 1600 4263 
Q 1884 4263 2148 4147 
Q 2413 4031 2583 3815 
Q 2753 3600 2753 3303 
Q 2753 3088 2651 2903 
Q 2550 2719 2373 2572 
Q 2197 2425 1997 2322 
L 2363 2088 
Q 2616 1922 2770 1653 
Q 2925 1384 2925 1088 
Q 2925 741 2739 456 
Q 2553 172 2247 15 
Q 1941 -141 1600 -141 
Q 1269 -141 961 -6 
Q 653 128 461 383 
Q 269 638 269 972 
z
M 616 972 
Q 616 719 755 509 
Q 894 300 1122 181 
Q 1350 63 1600 63 
Q 1972 63 2275 280 
Q 2578 497 2578 856 
Q 2578 978 2529 1098 
Q 2481 1219 2395 1317 
Q 2309 1416 2203 1478 
L 1344 2034 
Q 1144 1928 976 1765 
Q 809 1603 712 1400 
Q 616 1197 616 972 
z
M 1056 2925 
L 1831 2425 
Q 2100 2581 2272 2803 
Q 2444 3025 2444 3303 
Q 2444 3519 2323 3698 
Q 2203 3878 2009 3978 
Q 1816 4078 1594 4078 
Q 1400 4078 1203 4003 
Q 1006 3928 878 3779 
Q 750 3631 750 3431 
Q 750 3131 1056 2925 
z
" transform="scale(0.015625)"/>
      <path id="Cmr10-33" d="M 609 494 
Q 759 275 1012 169 
Q 1266 63 1556 63 
Q 1928 63 2084 380 
Q 2241 697 2241 1100 
Q 2241 1281 2208 1462 
Q 2175 1644 2097 1800 
Q 2019 1956 1883 2050 
Q 1747 2144 1550 2144 
L 1125 2144 
Q 1069 2144 1069 2203 
L 1069 2259 
Q 1069 2309 1125 2309 
L 1478 2338 
Q 1703 2338 1851 2506 
Q 2000 2675 2069 2917 
Q 2138 3159 2138 3378 
Q 2138 3684 1994 3881 
Q 1850 4078 1556 4078 
Q 1313 4078 1091 3986 
Q 869 3894 738 3706 
Q 750 3709 759 3711 
Q 769 3713 781 3713 
Q 925 3713 1022 3613 
Q 1119 3513 1119 3372 
Q 1119 3234 1022 3134 
Q 925 3034 781 3034 
Q 641 3034 541 3134 
Q 441 3234 441 3372 
Q 441 3647 606 3850 
Q 772 4053 1033 4158 
Q 1294 4263 1556 4263 
Q 1750 4263 1965 4205 
Q 2181 4147 2356 4039 
Q 2531 3931 2642 3762 
Q 2753 3594 2753 3378 
Q 2753 3109 2633 2881 
Q 2513 2653 2303 2487 
Q 2094 2322 1844 2241 
Q 2122 2188 2372 2031 
Q 2622 1875 2773 1631 
Q 2925 1388 2925 1106 
Q 2925 753 2731 467 
Q 2538 181 2222 20 
Q 1906 -141 1556 -141 
Q 1256 -141 954 -26 
Q 653 88 461 316 
Q 269 544 269 863 
Q 269 1022 375 1128 
Q 481 1234 641 1234 
Q 744 1234 830 1186 
Q 916 1138 964 1050 
Q 1013 963 1013 863 
Q 1013 706 903 600 
Q 794 494 641 494 
L 609 494 
z
" transform="scale(0.015625)"/>
     </defs>
     <use xlink:href="#Cmmi10-71" transform="translate(0 0.140625)"/>
     <use xlink:href="#Cmr10-31" transform="translate(44.580078 -16.865625) scale(0.7)"/>
     <use xlink:href="#Cmr10-28" transform="translate(85.957422 0.140625)"/>
     <use xlink:href="#Cmmi10-78" transform="translate(124.775781 0.140625)"/>
     <use xlink:href="#Cmmi10-3b" transform="translate(181.855859 0.140625)"/>
     <use xlink:href="#Cmmi10-79" transform="translate(227.1 0.140625)"/>
     <use xlink:href="#Cmr10-29" transform="translate(276.123438 0.140625)"/>
     <use xlink:href="#Cmr10-3d" transform="translate(332.500391 0.140625)"/>
     <use xlink:href="#Cmr10-28" transform="translate(427.744531 0.140625)"/>
     <use xlink:href="#Cmr10-36" transform="translate(466.562891 0.140625)"/>
     <use xlink:href="#Cmsy10-a1" transform="translate(516.562891 0.140625)"/>
     <use xlink:href="#Cmr10-34" transform="translate(594.248438 0.140625)"/>
     <use xlink:href="#Cmex10-70" transform="translate(644.248438 94.734375) scale(0.815389)"/>
     <use xlink:href="#Cmr10-32" transform="translate(738.279688 0.140625)"/>
     <use xlink:href="#Cmr10-29" transform="translate(800.779688 0.140625)"/>
     <use xlink:href="#Cmmi10-78" transform="translate(854.230501 0.140625)"/>
     <use xlink:href="#Cmr10-32" transform="translate(917.61386 38.404687) scale(0.7)"/>
     <use xlink:href="#Cmr10-2b" transform="translate(976.549798 0.140625)"/>
     <use xlink:href="#Cmr10-28" transform="translate(1071.793938 0.140625)"/>
     <use xlink:href="#Cmr10-36" transform="translate(1110.612298 0.140625)"/>
     <use xlink:href="#Cmex10-70" transform="translate(1160.612298 94.734375) scale(0.815389)"/>
     <use xlink:href="#Cmr10-32" transform="translate(1254.643548 0.140625)"/>
     <use xlink:href="#Cmsy10-a1" transform="translate(1317.143548 0.140625)"/>
     <use xlink:href="#Cmr10-38" transform="translate(1394.829095 0.140625)"/>
     <use xlink:href="#Cmr10-29" transform="translate(1444.829095 0.140625)"/>
     <use xlink:href="#Cmmi10-78" transform="translate(1498.279908 0.140625)"/>
     <use xlink:href="#Cmmi10-79" transform="translate(1555.359986 0.140625)"/>
     <use xlink:href="#Cmr10-2b" transform="translate(1621.942018 0.140625)"/>
     <use xlink:href="#Cmr10-28" transform="translate(1717.186158 0.140625)"/>
     <use xlink:href="#Cmr10-33" transform="translate(1756.004518 0.140625)"/>
     <use xlink:href="#Cmsy10-a1" transform="translate(1806.004518 0.140625)"/>
     <use xlink:href="#Cmr10-32" transform="translate(1883.690064 0.140625)"/>
     <use xlink:href="#Cmex10-70" transform="translate(1933.690064 94.734375) scale(0.815389)"/>
     <use xlink:href="#Cmr10-32" transform="translate(2027.721314 0.140625)"/>
     <use xlink:href="#Cmr10-29" transform="translate(2090.221314 0.140625)"/>
     <use xlink:href="#Cmmi10-79" transform="translate(2143.672128 0.140625)"/>
     <use xlink:href="#Cmr10-32" transform="translate(2198.998847 38.404687) scale(0.7)"/>
     <path d="M 725.779688 91.5 
L 725.779688 97.75 
L 800.779688 97.75 
L 800.779688 91.5 
L 725.779688 91.5 
z
"/>
     <path d="M 1242.143548 91.5 
L 1242.143548 97.75 
L 1317.143548 97.75 
L 1317.143548 91.5 
L 1242.143548 91.5 
z
"/>
     <path d="M 2015.221314 91.5 
L 2015.221314 97.75 
L 2090.221314 97.75 
L 2090.221314 91.5 
L 2015.221314 91.5 
z
"/>
    </g>
   </g>
   <g id="text_16">
    <!-- conv.\ envelope of $xy$ on $T_1=\mathrm{conv}\{(0,0),(1,2),(2,2)\}$ -->
    <g transform="translate(7.2 66.6575) scale(0.105 -0.105)">
     <defs>
      <path id="DejaVuSerif-2e" d="M 603 325 
Q 603 500 722 622 
Q 841 744 1019 744 
Q 1191 744 1312 622 
Q 1434 500 1434 325 
Q 1434 153 1312 31 
Q 1191 -91 1019 -91 
Q 841 -91 722 29 
Q 603 150 603 325 
z
" transform="scale(0.015625)"/>
      <path id="DejaVuSerif-5c" d="M 500 4666 
L 2156 -594 
L 1656 -594 
L 0 4666 
L 500 4666 
z
" transform="scale(0.015625)"/>
      <path id="DejaVuSerif-70" d="M 1313 1825 
L 1313 1497 
Q 1313 897 1542 583 
Q 1772 269 2209 269 
Q 2650 269 2876 622 
Q 3103 975 3103 1663 
Q 3103 2353 2876 2703 
Q 2650 3053 2209 3053 
Q 1772 3053 1542 2737 
Q 1313 2422 1313 1825 
z
M 738 2988 
L 184 2988 
L 184 3322 
L 1313 3322 
L 1313 2803 
Q 1481 3116 1742 3264 
Q 2003 3413 2388 3413 
Q 3000 3413 3387 2928 
Q 3775 2444 3775 1663 
Q 3775 881 3387 395 
Q 3000 -91 2388 -91 
Q 2003 -91 1742 57 
Q 1481 206 1313 519 
L 1313 -997 
L 1856 -997 
L 1856 -1331 
L 184 -1331 
L 184 -997 
L 738 -997 
L 738 2988 
z
" transform="scale(0.015625)"/>
      <path id="Cmr10-63" d="M 1594 -72 
Q 1206 -72 890 129 
Q 575 331 394 667 
Q 213 1003 213 1381 
Q 213 1759 392 2106 
Q 572 2453 889 2661 
Q 1206 2869 1594 2869 
Q 1969 2869 2276 2722 
Q 2584 2575 2584 2241 
Q 2584 2116 2495 2023 
Q 2406 1931 2278 1931 
Q 2150 1931 2061 2023 
Q 1972 2116 1972 2241 
Q 1972 2353 2044 2436 
Q 2116 2519 2222 2541 
Q 2000 2681 1600 2681 
Q 1294 2681 1106 2478 
Q 919 2275 844 1975 
Q 769 1675 769 1381 
Q 769 1072 861 783 
Q 953 494 1158 305 
Q 1363 116 1672 116 
Q 1975 116 2187 302 
Q 2400 488 2478 788 
Q 2478 825 2528 825 
L 2606 825 
Q 2625 825 2640 808 
Q 2656 791 2656 769 
L 2656 750 
Q 2559 372 2271 150 
Q 1984 -72 1594 -72 
z
" transform="scale(0.015625)"/>
      <path id="Cmr10-6f" d="M 1600 -72 
Q 1216 -72 887 123 
Q 559 319 368 647 
Q 178 975 178 1363 
Q 178 1656 283 1928 
Q 388 2200 583 2414 
Q 778 2628 1037 2748 
Q 1297 2869 1600 2869 
Q 1994 2869 2317 2661 
Q 2641 2453 2828 2104 
Q 3016 1756 3016 1363 
Q 3016 978 2825 648 
Q 2634 319 2307 123 
Q 1981 -72 1600 -72 
z
M 1600 116 
Q 2113 116 2284 487 
Q 2456 859 2456 1434 
Q 2456 1756 2422 1967 
Q 2388 2178 2272 2350 
Q 2200 2456 2089 2536 
Q 1978 2616 1854 2658 
Q 1731 2700 1600 2700 
Q 1400 2700 1220 2609 
Q 1041 2519 922 2350 
Q 803 2169 770 1951 
Q 738 1734 738 1434 
Q 738 1075 800 789 
Q 863 503 1052 309 
Q 1241 116 1600 116 
z
" transform="scale(0.015625)"/>
      <path id="Cmr10-6e" d="M 191 0 
L 191 225 
Q 409 225 550 259 
Q 691 294 691 428 
L 691 2175 
Q 691 2347 639 2423 
Q 588 2500 491 2517 
Q 394 2534 191 2534 
L 191 2759 
L 1119 2828 
L 1119 2203 
Q 1247 2478 1498 2653 
Q 1750 2828 2047 2828 
Q 2491 2828 2714 2615 
Q 2938 2403 2938 1966 
L 2938 428 
Q 2938 294 3078 259 
Q 3219 225 3438 225 
L 3438 0 
L 1972 0 
L 1972 225 
Q 2191 225 2331 259 
Q 2472 294 2472 428 
L 2472 1947 
Q 2472 2259 2381 2461 
Q 2291 2663 2009 2663 
Q 1638 2663 1398 2366 
Q 1159 2069 1159 1691 
L 1159 428 
Q 1159 294 1300 259 
Q 1441 225 1656 225 
L 1656 0 
L 191 0 
z
" transform="scale(0.015625)"/>
      <path id="Cmr10-76" d="M 1563 0 
L 628 2350 
Q 569 2469 445 2501 
Q 322 2534 122 2534 
L 122 2759 
L 1466 2759 
L 1466 2534 
Q 1106 2534 1106 2381 
Q 1106 2356 1113 2344 
L 1831 538 
L 2478 2169 
Q 2497 2219 2497 2272 
Q 2497 2394 2405 2464 
Q 2313 2534 2188 2534 
L 2188 2759 
L 3250 2759 
L 3250 2534 
Q 3053 2534 2904 2443 
Q 2756 2353 2675 2175 
L 1813 0 
Q 1788 -72 1709 -72 
L 1663 -72 
Q 1584 -72 1563 0 
z
" transform="scale(0.015625)"/>
      <path id="Cmex10-a9" d="M 1631 -6425 
L 1631 -4556 
Q 1631 -4338 1503 -4159 
Q 1375 -3981 1184 -3867 
Q 994 -3753 756 -3675 
Q 709 -3650 709 -3622 
L 709 -3547 
Q 709 -3503 756 -3494 
Q 1128 -3366 1379 -3150 
Q 1631 -2934 1631 -2606 
L 1631 -738 
Q 1631 -325 2004 -95 
Q 2378 134 2888 256 
L 2963 256 
Q 2981 256 2998 242 
Q 3016 228 3016 206 
L 3016 128 
Q 3016 91 2975 78 
Q 2619 -31 2359 -232 
Q 2100 -434 2100 -750 
L 2100 -2619 
Q 2100 -2994 1804 -3214 
Q 1509 -3434 1056 -3584 
Q 1497 -3716 1798 -3939 
Q 2100 -4163 2100 -4544 
L 2100 -6413 
Q 2100 -6628 2231 -6790 
Q 2363 -6953 2556 -7059 
Q 2750 -7166 2975 -7238 
Q 3016 -7250 3016 -7291 
L 3016 -7366 
Q 3016 -7384 2998 -7401 
Q 2981 -7419 2963 -7419 
L 2888 -7419 
Q 2559 -7338 2292 -7227 
Q 2025 -7116 1828 -6914 
Q 1631 -6713 1631 -6425 
z
" transform="scale(0.015625)"/>
      <path id="Cmr10-30" d="M 1600 -141 
Q 816 -141 533 504 
Q 250 1150 250 2041 
Q 250 2597 351 3087 
Q 453 3578 754 3920 
Q 1056 4263 1600 4263 
Q 2022 4263 2290 4056 
Q 2559 3850 2700 3523 
Q 2841 3197 2892 2823 
Q 2944 2450 2944 2041 
Q 2944 1491 2842 1011 
Q 2741 531 2444 195 
Q 2147 -141 1600 -141 
z
M 1600 25 
Q 1956 25 2131 390 
Q 2306 756 2347 1200 
Q 2388 1644 2388 2144 
Q 2388 2625 2347 3031 
Q 2306 3438 2132 3767 
Q 1959 4097 1600 4097 
Q 1238 4097 1063 3765 
Q 888 3434 847 3029 
Q 806 2625 806 2144 
Q 806 1788 823 1472 
Q 841 1156 916 820 
Q 991 484 1158 254 
Q 1325 25 1600 25 
z
" transform="scale(0.015625)"/>
      <path id="Cmex10-aa" d="M 709 -7366 
L 709 -7291 
Q 709 -7247 756 -7238 
Q 1631 -6953 1631 -6413 
L 1631 -4544 
Q 1631 -3909 2669 -3584 
Q 2219 -3431 1925 -3209 
Q 1631 -2988 1631 -2619 
L 1631 -750 
Q 1631 -206 756 78 
Q 709 88 709 128 
L 709 206 
Q 709 256 769 256 
L 844 256 
Q 1359 131 1729 -97 
Q 2100 -325 2100 -738 
L 2100 -2606 
Q 2100 -2925 2354 -3142 
Q 2609 -3359 2975 -3494 
Q 3016 -3506 3016 -3547 
L 3016 -3622 
Q 3016 -3641 2975 -3675 
Q 2769 -3744 2566 -3864 
Q 2363 -3984 2231 -4161 
Q 2100 -4338 2100 -4556 
L 2100 -6425 
Q 2100 -6713 1901 -6914 
Q 1703 -7116 1437 -7227 
Q 1172 -7338 844 -7419 
L 769 -7419 
Q 744 -7419 726 -7401 
Q 709 -7384 709 -7366 
z
" transform="scale(0.015625)"/>
     </defs>
     <use xlink:href="#DejaVuSerif-63" transform="translate(0 0.705729)"/>
     <use xlink:href="#DejaVuSerif-6f" transform="translate(56.005859 0.705729)"/>
     <use xlink:href="#DejaVuSerif-6e" transform="translate(116.210938 0.705729)"/>
     <use xlink:href="#DejaVuSerif-76" transform="translate(180.615234 0.705729)"/>
     <use xlink:href="#DejaVuSerif-2e" transform="translate(237.109375 0.705729)"/>
     <use xlink:href="#DejaVuSerif-5c" transform="translate(262.521484 0.705729)"/>
     <use xlink:href="#DejaVuSerif-20" transform="translate(296.212891 0.705729)"/>
     <use xlink:href="#DejaVuSerif-65" transform="translate(328 0.705729)"/>
     <use xlink:href="#DejaVuSerif-6e" transform="translate(387.179688 0.705729)"/>
     <use xlink:href="#DejaVuSerif-76" transform="translate(451.583984 0.705729)"/>
     <use xlink:href="#DejaVuSerif-65" transform="translate(508.078125 0.705729)"/>
     <use xlink:href="#DejaVuSerif-6c" transform="translate(567.257812 0.705729)"/>
     <use xlink:href="#DejaVuSerif-6f" transform="translate(599.240234 0.705729)"/>
     <use xlink:href="#DejaVuSerif-70" transform="translate(659.445312 0.705729)"/>
     <use xlink:href="#DejaVuSerif-65" transform="translate(723.458984 0.705729)"/>
     <use xlink:href="#DejaVuSerif-20" transform="translate(782.638672 0.705729)"/>
     <use xlink:href="#DejaVuSerif-6f" transform="translate(814.425781 0.705729)"/>
     <use xlink:href="#DejaVuSerif-66" transform="translate(874.630859 0.705729)"/>
     <use xlink:href="#DejaVuSerif-20" transform="translate(911.642578 0.705729)"/>
     <use xlink:href="#Cmmi10-78" transform="translate(943.429688 0.705729)"/>
     <use xlink:href="#Cmmi10-79" transform="translate(1000.509766 0.705729)"/>
     <use xlink:href="#DejaVuSerif-20" transform="translate(1049.533203 0.705729)"/>
     <use xlink:href="#DejaVuSerif-6f" transform="translate(1081.320312 0.705729)"/>
     <use xlink:href="#DejaVuSerif-6e" transform="translate(1141.525391 0.705729)"/>
     <use xlink:href="#DejaVuSerif-20" transform="translate(1205.929688 0.705729)"/>
     <use xlink:href="#Cmmi10-54" transform="translate(1237.716797 0.705729)"/>
     <use xlink:href="#Cmr10-31" transform="translate(1296.115234 -16.300521) scale(0.7)"/>
     <use xlink:href="#Cmr10-3d" transform="translate(1355.051172 0.705729)"/>
     <use xlink:href="#Cmr10-63" transform="translate(1450.295312 0.705729)"/>
     <use xlink:href="#Cmr10-6f" transform="translate(1494.680078 0.705729)"/>
     <use xlink:href="#Cmr10-6e" transform="translate(1544.680078 0.705729)"/>
     <use xlink:href="#Cmr10-76" transform="translate(1600.197656 0.705729)"/>
     <use xlink:href="#Cmex10-a9" transform="translate(1652.883203 94)"/>
     <use xlink:href="#Cmr10-28" transform="translate(1711.183984 0.705729)"/>
     <use xlink:href="#Cmr10-30" transform="translate(1750.002344 0.705729)"/>
     <use xlink:href="#Cmmi10-3b" transform="translate(1800.002344 0.705729)"/>
     <use xlink:href="#Cmr10-30" transform="translate(1845.246484 0.705729)"/>
     <use xlink:href="#Cmr10-29" transform="translate(1895.246484 0.705729)"/>
     <use xlink:href="#Cmmi10-3b" transform="translate(1934.064844 0.705729)"/>
     <use xlink:href="#Cmr10-28" transform="translate(1979.308984 0.705729)"/>
     <use xlink:href="#Cmr10-31" transform="translate(2018.127344 0.705729)"/>
     <use xlink:href="#Cmmi10-3b" transform="translate(2068.127344 0.705729)"/>
     <use xlink:href="#Cmr10-32" transform="translate(2113.371484 0.705729)"/>
     <use xlink:href="#Cmr10-29" transform="translate(2163.371484 0.705729)"/>
     <use xlink:href="#Cmmi10-3b" transform="translate(2202.189844 0.705729)"/>
     <use xlink:href="#Cmr10-28" transform="translate(2247.433984 0.705729)"/>
     <use xlink:href="#Cmr10-32" transform="translate(2286.252344 0.705729)"/>
     <use xlink:href="#Cmmi10-3b" transform="translate(2336.252344 0.705729)"/>
     <use xlink:href="#Cmr10-32" transform="translate(2381.496484 0.705729)"/>
     <use xlink:href="#Cmr10-29" transform="translate(2431.496484 0.705729)"/>
     <use xlink:href="#Cmex10-aa" transform="translate(2470.314844 94)"/>
    </g>
   </g>
   <g id="line2d_9">
    <defs>
     <path id="m0a97911f25" d="M 0 2.5 
C 0.663008 2.5 1.29895 2.236584 1.767767 1.767767 
C 2.236584 1.29895 2.5 0.663008 2.5 0 
C 2.5 -0.663008 2.236584 -1.29895 1.767767 -1.767767 
C 1.29895 -2.236584 0.663008 -2.5 0 -2.5 
C -0.663008 -2.5 -1.29895 -2.236584 -1.767767 -1.767767 
C -2.236584 -1.29895 -2.5 -0.663008 -2.5 0 
C -2.5 0.663008 -2.236584 1.29895 -1.767767 1.767767 
C -1.29895 2.236584 -0.663008 2.5 0 2.5 
z
" style="stroke: #000000"/>
    </defs>
    <g clip-path="url(#p840b2224f7)">
     <use xlink:href="#m0a97911f25" x="86.909479" y="257.071771" style="stroke: #000000"/>
    </g>
   </g>
   <g id="line2d_10">
    <g clip-path="url(#p840b2224f7)">
     <use xlink:href="#m0a97911f25" x="139.9725" y="150.945729" style="stroke: #000000"/>
    </g>
   </g>
   <g id="line2d_11">
    <g clip-path="url(#p840b2224f7)">
     <use xlink:href="#m0a97911f25" x="193.035521" y="150.945729" style="stroke: #000000"/>
    </g>
   </g>
   <g id="text_17">
    <!-- $T_1$ -->
    <g style="fill: #3b6ea5" transform="translate(121.400443 227.887109) scale(0.13 -0.13)">
     <use xlink:href="#Cmmi10-54" transform="translate(0 0.6875)"/>
     <use xlink:href="#Cmr10-31" transform="translate(58.398438 -16.31875) scale(0.7)"/>
    </g>
   </g>
  </g>
  <g id="axes_2">
   <g id="patch_8">
    <path d="M 416.519285 331.36 
L 573.971739 331.36 
L 573.971739 76.6575 
L 416.519285 76.6575 
z
" style="fill: #ffffff"/>
   </g>
   <g id="matplotlib.axis_3">
    <g id="xtick_4">
     <g id="line2d_12">
      <g>
       <use xlink:href="#ma4335721a3" x="448.935967" y="331.36" style="stroke: #000000; stroke-width: 0.8"/>
      </g>
     </g>
     <g id="text_18">
      <!-- 1 -->
      <g transform="translate(445.436592 346.718281) scale(0.11 -0.11)">
       <use xlink:href="#DejaVuSerif-31"/>
      </g>
     </g>
    </g>
    <g id="xtick_5">
     <g id="line2d_13">
      <g>
       <use xlink:href="#ma4335721a3" x="495.245512" y="331.36" style="stroke: #000000; stroke-width: 0.8"/>
      </g>
     </g>
     <g id="text_19">
      <!-- 2 -->
      <g transform="translate(491.746137 346.718281) scale(0.11 -0.11)">
       <use xlink:href="#DejaVuSerif-32"/>
      </g>
     </g>
    </g>
    <g id="xtick_6">
     <g id="line2d_14">
      <g>
       <use xlink:href="#ma4335721a3" x="541.555058" y="331.36" style="stroke: #000000; stroke-width: 0.8"/>
      </g>
     </g>
     <g id="text_20">
      <!-- 3 -->
      <g transform="translate(538.055683 346.718281) scale(0.11 -0.11)">
       <use xlink:href="#DejaVuSerif-33"/>
      </g>
     </g>
    </g>
    <g id="text_21">
     <!-- $x$ -->
     <g transform="translate(492.055512 361.364219) scale(0.11 -0.11)">
      <use xlink:href="#Cmmi10-78" transform="translate(0 0.8125)"/>
     </g>
    </g>
   </g>
   <g id="matplotlib.axis_4">
    <g id="ytick_6">
     <g id="line2d_15">
      <g>
       <use xlink:href="#m18c3d6e5af" x="416.519285" y="303.574273" style="stroke: #000000; stroke-width: 0.8"/>
      </g>
     </g>
     <g id="text_22">
      <!-- 0 -->
      <g transform="translate(402.520535 307.753413) scale(0.11 -0.11)">
       <use xlink:href="#DejaVuSerif-30"/>
      </g>
     </g>
    </g>
    <g id="ytick_7">
     <g id="line2d_16">
      <g>
       <use xlink:href="#m18c3d6e5af" x="416.519285" y="257.264727" style="stroke: #000000; stroke-width: 0.8"/>
      </g>
     </g>
     <g id="text_23">
      <!-- 1 -->
      <g transform="translate(402.520535 261.443868) scale(0.11 -0.11)">
       <use xlink:href="#DejaVuSerif-31"/>
      </g>
     </g>
    </g>
    <g id="ytick_8">
     <g id="line2d_17">
      <g>
       <use xlink:href="#m18c3d6e5af" x="416.519285" y="210.955182" style="stroke: #000000; stroke-width: 0.8"/>
      </g>
     </g>
     <g id="text_24">
      <!-- 2 -->
      <g transform="translate(402.520535 215.134322) scale(0.11 -0.11)">
       <use xlink:href="#DejaVuSerif-32"/>
      </g>
     </g>
    </g>
    <g id="ytick_9">
     <g id="line2d_18">
      <g>
       <use xlink:href="#m18c3d6e5af" x="416.519285" y="164.645636" style="stroke: #000000; stroke-width: 0.8"/>
      </g>
     </g>
     <g id="text_25">
      <!-- 3 -->
      <g transform="translate(402.520535 168.824777) scale(0.11 -0.11)">
       <use xlink:href="#DejaVuSerif-33"/>
      </g>
     </g>
    </g>
    <g id="ytick_10">
     <g id="line2d_19">
      <g>
       <use xlink:href="#m18c3d6e5af" x="416.519285" y="118.336091" style="stroke: #000000; stroke-width: 0.8"/>
      </g>
     </g>
     <g id="text_26">
      <!-- 4 -->
      <g transform="translate(402.520535 122.515232) scale(0.11 -0.11)">
       <defs>
        <path id="DejaVuSerif-34" d="M 2234 1581 
L 2234 4063 
L 641 1581 
L 2234 1581 
z
M 3609 0 
L 1484 0 
L 1484 331 
L 2234 331 
L 2234 1247 
L 197 1247 
L 197 1588 
L 2241 4750 
L 2859 4750 
L 2859 1581 
L 3750 1581 
L 3750 1247 
L 2859 1247 
L 2859 331 
L 3609 331 
L 3609 0 
z
" transform="scale(0.015625)"/>
       </defs>
       <use xlink:href="#DejaVuSerif-34"/>
      </g>
     </g>
    </g>
    <g id="text_27">
     <!-- $y$ -->
     <g transform="translate(396.210535 206.75875) rotate(-90) scale(0.11 -0.11)">
      <use xlink:href="#Cmmi10-79" transform="translate(0 0.8125)"/>
     </g>
    </g>
   </g>
   <g id="patch_9">
    <path d="M 448.935967 210.955182 
L 495.245512 210.955182 
L 541.555058 164.645636 
z
" clip-path="url(#p471dbb42e8)" style="fill: #b5652c; opacity: 0.18; stroke: #b5652c; stroke-width: 2; stroke-linejoin: miter"/>
   </g>
   <g id="patch_10">
    <path d="M 416.519285 331.36 
L 416.519285 76.6575 
" style="fill: none; stroke: #000000; stroke-width: 0.8; stroke-linejoin: miter; stroke-linecap: square"/>
   </g>
   <g id="patch_11">
    <path d="M 416.519285 331.36 
L 573.971739 331.36 
" style="fill: none; stroke: #000000; stroke-width: 0.8; stroke-linejoin: miter; stroke-linecap: square"/>
   </g>
   <g id="text_28">
    <!-- (1,2) -->
    <g transform="translate(429.485958 225.774236) scale(0.1 -0.1)">
     <use xlink:href="#DejaVuSansMono-28"/>
     <use xlink:href="#DejaVuSansMono-31" transform="translate(60.205078 0)"/>
     <use xlink:href="#DejaVuSansMono-2c" transform="translate(120.410156 0)"/>
     <use xlink:href="#DejaVuSansMono-32" transform="translate(180.615234 0)"/>
     <use xlink:href="#DejaVuSansMono-29" transform="translate(240.820312 0)"/>
    </g>
   </g>
   <g id="text_29">
    <!-- (2,2) -->
    <g transform="translate(490.614558 204.00875) scale(0.1 -0.1)">
     <use xlink:href="#DejaVuSansMono-28"/>
     <use xlink:href="#DejaVuSansMono-32" transform="translate(60.205078 0)"/>
     <use xlink:href="#DejaVuSansMono-2c" transform="translate(120.410156 0)"/>
     <use xlink:href="#DejaVuSansMono-32" transform="translate(180.615234 0)"/>
     <use xlink:href="#DejaVuSansMono-29" transform="translate(240.820312 0)"/>
    </g>
   </g>
   <g id="text_30">
    <!-- (3,3) -->
    <g transform="translate(547.112203 166.961114) scale(0.1 -0.1)">
     <defs>
      <path id="DejaVuSansMono-33" d="M 2425 2497 
Q 2884 2375 3128 2064 
Q 3372 1753 3372 1288 
Q 3372 644 2939 276 
Q 2506 -91 1741 -91 
Q 1419 -91 1084 -31 
Q 750 28 428 141 
L 428 769 
Q 747 603 1056 522 
Q 1366 441 1672 441 
Q 2191 441 2469 675 
Q 2747 909 2747 1350 
Q 2747 1756 2469 1995 
Q 2191 2234 1716 2234 
L 1234 2234 
L 1234 2753 
L 1716 2753 
Q 2150 2753 2394 2943 
Q 2638 3134 2638 3475 
Q 2638 3834 2411 4026 
Q 2184 4219 1766 4219 
Q 1488 4219 1191 4156 
Q 894 4094 569 3969 
L 569 4550 
Q 947 4650 1242 4700 
Q 1538 4750 1766 4750 
Q 2447 4750 2855 4408 
Q 3263 4066 3263 3500 
Q 3263 3116 3048 2859 
Q 2834 2603 2425 2497 
z
" transform="scale(0.015625)"/>
     </defs>
     <use xlink:href="#DejaVuSansMono-28"/>
     <use xlink:href="#DejaVuSansMono-33" transform="translate(60.205078 0)"/>
     <use xlink:href="#DejaVuSansMono-2c" transform="translate(120.410156 0)"/>
     <use xlink:href="#DejaVuSansMono-33" transform="translate(180.615234 0)"/>
     <use xlink:href="#DejaVuSansMono-29" transform="translate(240.820312 0)"/>
    </g>
   </g>
   <g id="text_31">
    <g id="patch_12">
     <path d="M 421.355512 144.197105 
L 569.135512 144.197105 
Q 572.285512 144.197105 572.285512 141.047105 
L 572.285512 111.980761 
Q 572.285512 108.830761 569.135512 108.830761 
L 421.355512 108.830761 
Q 418.205512 108.830761 418.205512 111.980761 
L 418.205512 141.047105 
Q 418.205512 144.197105 421.355512 144.197105 
z
" style="fill: #ffffff; opacity: 0.9; stroke: #b5652c; stroke-linejoin: miter"/>
    </g>
    <!-- 1 face: all of $T_2$ -->
    <g style="fill: #5a3212" transform="translate(461.180512 118.819355) scale(0.09 -0.09)">
     <use xlink:href="#DejaVuSerif-31" transform="translate(0 0.015625)"/>
     <use xlink:href="#DejaVuSerif-20" transform="translate(63.623047 0.015625)"/>
     <use xlink:href="#DejaVuSerif-66" transform="translate(95.410156 0.015625)"/>
     <use xlink:href="#DejaVuSerif-61" transform="translate(132.421875 0.015625)"/>
     <use xlink:href="#DejaVuSerif-63" transform="translate(192.041016 0.015625)"/>
     <use xlink:href="#DejaVuSerif-65" transform="translate(248.046875 0.015625)"/>
     <use xlink:href="#DejaVuSerif-3a" transform="translate(307.226562 0.015625)"/>
     <use xlink:href="#DejaVuSerif-20" transform="translate(340.917969 0.015625)"/>
     <use xlink:href="#DejaVuSerif-61" transform="translate(372.705078 0.015625)"/>
     <use xlink:href="#DejaVuSerif-6c" transform="translate(432.324219 0.015625)"/>
     <use xlink:href="#DejaVuSerif-6c" transform="translate(464.306641 0.015625)"/>
     <use xlink:href="#DejaVuSerif-20" transform="translate(496.289062 0.015625)"/>
     <use xlink:href="#DejaVuSerif-6f" transform="translate(528.076172 0.015625)"/>
     <use xlink:href="#DejaVuSerif-66" transform="translate(588.28125 0.015625)"/>
     <use xlink:href="#DejaVuSerif-20" transform="translate(625.292969 0.015625)"/>
     <use xlink:href="#Cmmi10-54" transform="translate(657.080078 0.015625)"/>
     <use xlink:href="#Cmr10-32" transform="translate(715.478516 -16.990625) scale(0.7)"/>
    </g>
    <!-- (2 convex edges $\Rightarrow$ closed form, -->
    <g style="fill: #5a3212" transform="translate(421.355512 128.899074) scale(0.09 -0.09)">
     <use xlink:href="#DejaVuSerif-28" transform="translate(0 0.015625)"/>
     <use xlink:href="#DejaVuSerif-32" transform="translate(39.013672 0.015625)"/>
     <use xlink:href="#DejaVuSerif-20" transform="translate(102.636719 0.015625)"/>
     <use xlink:href="#DejaVuSerif-63" transform="translate(134.423828 0.015625)"/>
     <use xlink:href="#DejaVuSerif-6f" transform="translate(190.429688 0.015625)"/>
     <use xlink:href="#DejaVuSerif-6e" transform="translate(250.634766 0.015625)"/>
     <use xlink:href="#DejaVuSerif-76" transform="translate(315.039062 0.015625)"/>
     <use xlink:href="#DejaVuSerif-65" transform="translate(371.533203 0.015625)"/>
     <use xlink:href="#DejaVuSerif-78" transform="translate(430.712891 0.015625)"/>
     <use xlink:href="#DejaVuSerif-20" transform="translate(487.109375 0.015625)"/>
     <use xlink:href="#DejaVuSerif-65" transform="translate(518.896484 0.015625)"/>
     <use xlink:href="#DejaVuSerif-64" transform="translate(578.076172 0.015625)"/>
     <use xlink:href="#DejaVuSerif-67" transform="translate(642.089844 0.015625)"/>
     <use xlink:href="#DejaVuSerif-65" transform="translate(706.103516 0.015625)"/>
     <use xlink:href="#DejaVuSerif-73" transform="translate(765.283203 0.015625)"/>
     <use xlink:href="#DejaVuSerif-20" transform="translate(816.601562 0.015625)"/>
     <use xlink:href="#Cmsy10-29" transform="translate(865.947266 0.015625)"/>
     <use xlink:href="#DejaVuSerif-20" transform="translate(983.505859 0.015625)"/>
     <use xlink:href="#DejaVuSerif-63" transform="translate(1015.292969 0.015625)"/>
     <use xlink:href="#DejaVuSerif-6c" transform="translate(1071.298828 0.015625)"/>
     <use xlink:href="#DejaVuSerif-6f" transform="translate(1103.28125 0.015625)"/>
     <use xlink:href="#DejaVuSerif-73" transform="translate(1163.486328 0.015625)"/>
     <use xlink:href="#DejaVuSerif-65" transform="translate(1214.804688 0.015625)"/>
     <use xlink:href="#DejaVuSerif-64" transform="translate(1273.984375 0.015625)"/>
     <use xlink:href="#DejaVuSerif-20" transform="translate(1337.998047 0.015625)"/>
     <use xlink:href="#DejaVuSerif-66" transform="translate(1369.785156 0.015625)"/>
     <use xlink:href="#DejaVuSerif-6f" transform="translate(1406.796875 0.015625)"/>
     <use xlink:href="#DejaVuSerif-72" transform="translate(1467.001953 0.015625)"/>
     <use xlink:href="#DejaVuSerif-6d" transform="translate(1514.804688 0.015625)"/>
     <use xlink:href="#DejaVuSerif-2c" transform="translate(1609.628906 0.015625)"/>
    </g>
    <!-- no subdivision) -->
    <g style="fill: #5a3212" transform="translate(460.706606 139.175386) scale(0.09 -0.09)">
     <use xlink:href="#DejaVuSerif-6e"/>
     <use xlink:href="#DejaVuSerif-6f" transform="translate(64.404297 0)"/>
     <use xlink:href="#DejaVuSerif-20" transform="translate(124.609375 0)"/>
     <use xlink:href="#DejaVuSerif-73" transform="translate(156.396484 0)"/>
     <use xlink:href="#DejaVuSerif-75" transform="translate(207.714844 0)"/>
     <use xlink:href="#DejaVuSerif-62" transform="translate(272.119141 0)"/>
     <use xlink:href="#DejaVuSerif-64" transform="translate(336.132812 0)"/>
     <use xlink:href="#DejaVuSerif-69" transform="translate(400.146484 0)"/>
     <use xlink:href="#DejaVuSerif-76" transform="translate(432.128906 0)"/>
     <use xlink:href="#DejaVuSerif-69" transform="translate(488.623047 0)"/>
     <use xlink:href="#DejaVuSerif-73" transform="translate(520.605469 0)"/>
     <use xlink:href="#DejaVuSerif-69" transform="translate(571.923828 0)"/>
     <use xlink:href="#DejaVuSerif-6f" transform="translate(603.90625 0)"/>
     <use xlink:href="#DejaVuSerif-6e" transform="translate(664.111328 0)"/>
     <use xlink:href="#DejaVuSerif-29" transform="translate(728.515625 0)"/>
    </g>
   </g>
   <g id="text_32">
    <g id="patch_13">
     <path d="M 379.903012 303.452841 
L 610.588012 303.452841 
Q 614.788012 303.452841 614.788012 299.252841 
L 614.788012 269.978841 
Q 614.788012 265.778841 610.588012 265.778841 
L 379.903012 265.778841 
Q 375.703012 265.778841 375.703012 269.978841 
L 375.703012 299.252841 
Q 375.703012 303.452841 379.903012 303.452841 
z
" style="fill: #fbeee1; stroke: #b5652c; stroke-linejoin: miter"/>
    </g>
    <!-- $q_2(x,y)=(3{-}2\sqrt{2})x^2+(6\sqrt{2}{-}8)xy+(6{-}4\sqrt{2})y^2$ -->
    <g transform="translate(379.903012 280.898841) scale(0.105 -0.105)">
     <use xlink:href="#Cmmi10-71" transform="translate(0 0.140625)"/>
     <use xlink:href="#Cmr10-32" transform="translate(44.580078 -16.865625) scale(0.7)"/>
     <use xlink:href="#Cmr10-28" transform="translate(85.957422 0.140625)"/>
     <use xlink:href="#Cmmi10-78" transform="translate(124.775781 0.140625)"/>
     <use xlink:href="#Cmmi10-3b" transform="translate(181.855859 0.140625)"/>
     <use xlink:href="#Cmmi10-79" transform="translate(227.1 0.140625)"/>
     <use xlink:href="#Cmr10-29" transform="translate(276.123438 0.140625)"/>
     <use xlink:href="#Cmr10-3d" transform="translate(332.500391 0.140625)"/>
     <use xlink:href="#Cmr10-28" transform="translate(427.744531 0.140625)"/>
     <use xlink:href="#Cmr10-33" transform="translate(466.562891 0.140625)"/>
     <use xlink:href="#Cmsy10-a1" transform="translate(516.562891 0.140625)"/>
     <use xlink:href="#Cmr10-32" transform="translate(594.248438 0.140625)"/>
     <use xlink:href="#Cmex10-70" transform="translate(644.248438 94.734375) scale(0.815389)"/>
     <use xlink:href="#Cmr10-32" transform="translate(738.279688 0.140625)"/>
     <use xlink:href="#Cmr10-29" transform="translate(800.779688 0.140625)"/>
     <use xlink:href="#Cmmi10-78" transform="translate(839.598047 0.140625)"/>
     <use xlink:href="#Cmr10-32" transform="translate(902.981406 38.404687) scale(0.7)"/>
     <use xlink:href="#Cmr10-2b" transform="translate(961.917344 0.140625)"/>
     <use xlink:href="#Cmr10-28" transform="translate(1057.161484 0.140625)"/>
     <use xlink:href="#Cmr10-36" transform="translate(1095.979844 0.140625)"/>
     <use xlink:href="#Cmex10-70" transform="translate(1145.979844 94.734375) scale(0.815389)"/>
     <use xlink:href="#Cmr10-32" transform="translate(1240.011094 0.140625)"/>
     <use xlink:href="#Cmsy10-a1" transform="translate(1302.511094 0.140625)"/>
     <use xlink:href="#Cmr10-38" transform="translate(1380.196641 0.140625)"/>
     <use xlink:href="#Cmr10-29" transform="translate(1430.196641 0.140625)"/>
     <use xlink:href="#Cmmi10-78" transform="translate(1469.015 0.140625)"/>
     <use xlink:href="#Cmmi10-79" transform="translate(1526.095078 0.140625)"/>
     <use xlink:href="#Cmr10-2b" transform="translate(1592.677109 0.140625)"/>
     <use xlink:href="#Cmr10-28" transform="translate(1687.92125 0.140625)"/>
     <use xlink:href="#Cmr10-36" transform="translate(1726.739609 0.140625)"/>
     <use xlink:href="#Cmsy10-a1" transform="translate(1776.739609 0.140625)"/>
     <use xlink:href="#Cmr10-34" transform="translate(1854.425156 0.140625)"/>
     <use xlink:href="#Cmex10-70" transform="translate(1904.425156 94.734375) scale(0.815389)"/>
     <use xlink:href="#Cmr10-32" transform="translate(1998.456406 0.140625)"/>
     <use xlink:href="#Cmr10-29" transform="translate(2060.956406 0.140625)"/>
     <use xlink:href="#Cmmi10-79" transform="translate(2099.774766 0.140625)"/>
     <use xlink:href="#Cmr10-32" transform="translate(2155.101484 38.404687) scale(0.7)"/>
     <path d="M 725.779688 91.5 
L 725.779688 97.75 
L 800.779688 97.75 
L 800.779688 91.5 
L 725.779688 91.5 
z
"/>
     <path d="M 1227.511094 91.5 
L 1227.511094 97.75 
L 1302.511094 97.75 
L 1302.511094 91.5 
L 1227.511094 91.5 
z
"/>
     <path d="M 1985.956406 91.5 
L 1985.956406 97.75 
L 2060.956406 97.75 
L 2060.956406 91.5 
L 1985.956406 91.5 
z
"/>
    </g>
    <!-- $\qquad\qquad +(9{-}6\sqrt{2})x+(6\sqrt{2}{-}9)y$ -->
    <g transform="translate(416.128012 296.627841) scale(0.105 -0.105)">
     <defs>
      <path id="Cmr10-39" d="M 722 269 
Q 897 63 1331 63 
Q 1575 63 1786 228 
Q 1997 394 2113 634 
Q 2247 906 2284 1214 
Q 2322 1522 2322 1978 
Q 2213 1719 2008 1553 
Q 1803 1388 1538 1388 
Q 1166 1388 873 1589 
Q 581 1791 425 2120 
Q 269 2450 269 2822 
Q 269 3206 444 3539 
Q 619 3872 928 4067 
Q 1238 4263 1631 4263 
Q 2019 4263 2280 4052 
Q 2541 3841 2678 3508 
Q 2816 3175 2870 2803 
Q 2925 2431 2925 2069 
Q 2925 1575 2744 1061 
Q 2563 547 2202 203 
Q 1841 -141 1331 -141 
Q 953 -141 690 37 
Q 428 216 428 575 
Q 428 706 517 795 
Q 606 884 738 884 
Q 866 884 955 795 
Q 1044 706 1044 575 
Q 1044 450 953 359 
Q 863 269 738 269 
L 722 269 
z
M 1563 1556 
Q 1825 1556 1992 1732 
Q 2159 1909 2234 2171 
Q 2309 2434 2309 2694 
L 2309 2816 
L 2309 2841 
Q 2309 3322 2168 3700 
Q 2028 4078 1631 4078 
Q 1378 4078 1220 3967 
Q 1063 3856 988 3672 
Q 913 3488 892 3278 
Q 872 3069 872 2822 
Q 872 2459 906 2203 
Q 941 1947 1094 1751 
Q 1247 1556 1563 1556 
z
" transform="scale(0.015625)"/>
     </defs>
     <use xlink:href="#Cmr10-2b" transform="translate(368.730469 0.140625)"/>
     <use xlink:href="#Cmr10-28" transform="translate(463.974609 0.140625)"/>
     <use xlink:href="#Cmr10-39" transform="translate(502.792969 0.140625)"/>
     <use xlink:href="#Cmsy10-a1" transform="translate(552.792969 0.140625)"/>
     <use xlink:href="#Cmr10-36" transform="translate(630.478516 0.140625)"/>
     <use xlink:href="#Cmex10-70" transform="translate(680.478516 94.734375) scale(0.815389)"/>
     <use xlink:href="#Cmr10-32" transform="translate(774.509766 0.140625)"/>
     <use xlink:href="#Cmr10-29" transform="translate(837.009766 0.140625)"/>
     <use xlink:href="#Cmmi10-78" transform="translate(875.828125 0.140625)"/>
     <use xlink:href="#Cmr10-2b" transform="translate(950.466797 0.140625)"/>
     <use xlink:href="#Cmr10-28" transform="translate(1045.710938 0.140625)"/>
     <use xlink:href="#Cmr10-36" transform="translate(1084.529297 0.140625)"/>
     <use xlink:href="#Cmex10-70" transform="translate(1134.529297 94.734375) scale(0.815389)"/>
     <use xlink:href="#Cmr10-32" transform="translate(1228.560547 0.140625)"/>
     <use xlink:href="#Cmsy10-a1" transform="translate(1291.060547 0.140625)"/>
     <use xlink:href="#Cmr10-39" transform="translate(1368.746094 0.140625)"/>
     <use xlink:href="#Cmr10-29" transform="translate(1418.746094 0.140625)"/>
     <use xlink:href="#Cmmi10-79" transform="translate(1457.564453 0.140625)"/>
     <path d="M 762.009766 91.5 
L 762.009766 97.75 
L 837.009766 97.75 
L 837.009766 91.5 
L 762.009766 91.5 
z
"/>
     <path d="M 1216.060547 91.5 
L 1216.060547 97.75 
L 1291.060547 97.75 
L 1291.060547 91.5 
L 1216.060547 91.5 
z
"/>
    </g>
   </g>
   <g id="text_33">
    <!-- conv.\ envelope of $xy$ on $T_2=\mathrm{conv}\{(1,2),(2,2),(3,3)\}$ -->
    <g transform="translate(362.473012 66.6575) scale(0.105 -0.105)">
     <use xlink:href="#DejaVuSerif-63" transform="translate(0 0.705729)"/>
     <use xlink:href="#DejaVuSerif-6f" transform="translate(56.005859 0.705729)"/>
     <use xlink:href="#DejaVuSerif-6e" transform="translate(116.210938 0.705729)"/>
     <use xlink:href="#DejaVuSerif-76" transform="translate(180.615234 0.705729)"/>
     <use xlink:href="#DejaVuSerif-2e" transform="translate(237.109375 0.705729)"/>
     <use xlink:href="#DejaVuSerif-5c" transform="translate(262.521484 0.705729)"/>
     <use xlink:href="#DejaVuSerif-20" transform="translate(296.212891 0.705729)"/>
     <use xlink:href="#DejaVuSerif-65" transform="translate(328 0.705729)"/>
     <use xlink:href="#DejaVuSerif-6e" transform="translate(387.179688 0.705729)"/>
     <use xlink:href="#DejaVuSerif-76" transform="translate(451.583984 0.705729)"/>
     <use xlink:href="#DejaVuSerif-65" transform="translate(508.078125 0.705729)"/>
     <use xlink:href="#DejaVuSerif-6c" transform="translate(567.257812 0.705729)"/>
     <use xlink:href="#DejaVuSerif-6f" transform="translate(599.240234 0.705729)"/>
     <use xlink:href="#DejaVuSerif-70" transform="translate(659.445312 0.705729)"/>
     <use xlink:href="#DejaVuSerif-65" transform="translate(723.458984 0.705729)"/>
     <use xlink:href="#DejaVuSerif-20" transform="translate(782.638672 0.705729)"/>
     <use xlink:href="#DejaVuSerif-6f" transform="translate(814.425781 0.705729)"/>
     <use xlink:href="#DejaVuSerif-66" transform="translate(874.630859 0.705729)"/>
     <use xlink:href="#DejaVuSerif-20" transform="translate(911.642578 0.705729)"/>
     <use xlink:href="#Cmmi10-78" transform="translate(943.429688 0.705729)"/>
     <use xlink:href="#Cmmi10-79" transform="translate(1000.509766 0.705729)"/>
     <use xlink:href="#DejaVuSerif-20" transform="translate(1049.533203 0.705729)"/>
     <use xlink:href="#DejaVuSerif-6f" transform="translate(1081.320312 0.705729)"/>
     <use xlink:href="#DejaVuSerif-6e" transform="translate(1141.525391 0.705729)"/>
     <use xlink:href="#DejaVuSerif-20" transform="translate(1205.929688 0.705729)"/>
     <use xlink:href="#Cmmi10-54" transform="translate(1237.716797 0.705729)"/>
     <use xlink:href="#Cmr10-32" transform="translate(1296.115234 -16.300521) scale(0.7)"/>
     <use xlink:href="#Cmr10-3d" transform="translate(1355.051172 0.705729)"/>
     <use xlink:href="#Cmr10-63" transform="translate(1450.295312 0.705729)"/>
     <use xlink:href="#Cmr10-6f" transform="translate(1494.680078 0.705729)"/>
     <use xlink:href="#Cmr10-6e" transform="translate(1544.680078 0.705729)"/>
     <use xlink:href="#Cmr10-76" transform="translate(1600.197656 0.705729)"/>
     <use xlink:href="#Cmex10-a9" transform="translate(1652.883203 94)"/>
     <use xlink:href="#Cmr10-28" transform="translate(1711.183984 0.705729)"/>
     <use xlink:href="#Cmr10-31" transform="translate(1750.002344 0.705729)"/>
     <use xlink:href="#Cmmi10-3b" transform="translate(1800.002344 0.705729)"/>
     <use xlink:href="#Cmr10-32" transform="translate(1845.246484 0.705729)"/>
     <use xlink:href="#Cmr10-29" transform="translate(1895.246484 0.705729)"/>
     <use xlink:href="#Cmmi10-3b" transform="translate(1934.064844 0.705729)"/>
     <use xlink:href="#Cmr10-28" transform="translate(1979.308984 0.705729)"/>
     <use xlink:href="#Cmr10-32" transform="translate(2018.127344 0.705729)"/>
     <use xlink:href="#Cmmi10-3b" transform="translate(2068.127344 0.705729)"/>
     <use xlink:href="#Cmr10-32" transform="translate(2113.371484 0.705729)"/>
     <use xlink:href="#Cmr10-29" transform="translate(2163.371484 0.705729)"/>
     <use xlink:href="#Cmmi10-3b" transform="translate(2202.189844 0.705729)"/>
     <use xlink:href="#Cmr10-28" transform="translate(2247.433984 0.705729)"/>
     <use xlink:href="#Cmr10-33" transform="translate(2286.252344 0.705729)"/>
     <use xlink:href="#Cmmi10-3b" transform="translate(2336.252344 0.705729)"/>
     <use xlink:href="#Cmr10-33" transform="translate(2381.496484 0.705729)"/>
     <use xlink:href="#Cmr10-29" transform="translate(2431.496484 0.705729)"/>
     <use xlink:href="#Cmex10-aa" transform="translate(2470.314844 94)"/>
    </g>
   </g>
   <g id="line2d_20">
    <g clip-path="url(#p471dbb42e8)">
     <use xlink:href="#m0a97911f25" x="448.935967" y="210.955182" style="stroke: #000000"/>
    </g>
   </g>
   <g id="line2d_21">
    <g clip-path="url(#p471dbb42e8)">
     <use xlink:href="#m0a97911f25" x="495.245512" y="210.955182" style="stroke: #000000"/>
    </g>
   </g>
   <g id="line2d_22">
    <g clip-path="url(#p471dbb42e8)">
     <use xlink:href="#m0a97911f25" x="541.555058" y="164.645636" style="stroke: #000000"/>
    </g>
   </g>
   <g id="text_34">
    <!-- $T_2$ -->
    <g style="fill: #b5652c" transform="translate(511.453853 185.484932) scale(0.13 -0.13)">
     <use xlink:href="#Cmmi10-54" transform="translate(0 0.6875)"/>
     <use xlink:href="#Cmr10-32" transform="translate(58.398438 -16.31875) scale(0.7)"/>
    </g>
   </g>
  </g>
  <g id="text_35">
   <!-- Step 1 output: polyhedral tessellation of $\mathrm{conv}(xy|_{T_1})$ and $\mathrm{conv}(xy|_{T_2})$ -->
   <g transform="translate(117.681052 16.32) scale(0.12 -0.12)">
    <defs>
     <path id="DejaVuSerif-53" d="M 594 225 
L 594 1288 
L 953 1284 
Q 969 753 1261 498 
Q 1553 244 2150 244 
Q 2706 244 2998 464 
Q 3291 684 3291 1106 
Q 3291 1444 3114 1625 
Q 2938 1806 2369 1978 
L 1753 2163 
Q 1084 2366 811 2669 
Q 538 2972 538 3500 
Q 538 4094 959 4422 
Q 1381 4750 2144 4750 
Q 2469 4750 2856 4679 
Q 3244 4609 3681 4475 
L 3681 3481 
L 3328 3481 
Q 3275 3975 2998 4195 
Q 2722 4416 2156 4416 
Q 1663 4416 1405 4214 
Q 1147 4013 1147 3628 
Q 1147 3294 1340 3103 
Q 1534 2913 2163 2725 
L 2741 2553 
Q 3375 2363 3645 2067 
Q 3916 1772 3916 1275 
Q 3916 597 3481 253 
Q 3047 -91 2188 -91 
Q 1803 -91 1404 -12 
Q 1006 66 594 225 
z
" transform="scale(0.015625)"/>
     <path id="DejaVuSerif-74" d="M 691 2988 
L 184 2988 
L 184 3322 
L 691 3322 
L 691 4353 
L 1269 4353 
L 1269 3322 
L 2350 3322 
L 2350 2988 
L 1269 2988 
L 1269 878 
Q 1269 456 1350 337 
Q 1431 219 1650 219 
Q 1875 219 1978 351 
Q 2081 484 2088 781 
L 2522 781 
Q 2497 328 2275 118 
Q 2053 -91 1600 -91 
Q 1103 -91 897 129 
Q 691 350 691 878 
L 691 2988 
z
" transform="scale(0.015625)"/>
     <path id="DejaVuSerif-79" d="M 1381 -609 
L 1600 -56 
L 359 2988 
L -19 2988 
L -19 3322 
L 1509 3322 
L 1509 2988 
L 978 2988 
L 1913 703 
L 2847 2988 
L 2350 2988 
L 2350 3322 
L 3597 3322 
L 3597 2988 
L 3225 2988 
L 1703 -750 
Q 1547 -1138 1356 -1280 
Q 1166 -1422 819 -1422 
Q 672 -1422 517 -1397 
Q 363 -1372 206 -1325 
L 206 -691 
L 500 -691 
Q 519 -903 608 -995 
Q 697 -1088 884 -1088 
Q 1056 -1088 1161 -992 
Q 1266 -897 1381 -609 
z
" transform="scale(0.015625)"/>
     <path id="DejaVuSerif-68" d="M 263 0 
L 263 331 
L 781 331 
L 781 4531 
L 231 4531 
L 231 4863 
L 1356 4863 
L 1356 2731 
Q 1516 3069 1770 3241 
Q 2025 3413 2363 3413 
Q 2913 3413 3172 3097 
Q 3431 2781 3431 2113 
L 3431 331 
L 3944 331 
L 3944 0 
L 2356 0 
L 2356 331 
L 2853 331 
L 2853 1931 
Q 2853 2541 2704 2764 
Q 2556 2988 2175 2988 
Q 1775 2988 1565 2697 
Q 1356 2406 1356 1850 
L 1356 331 
L 1856 331 
L 1856 0 
L 263 0 
z
" transform="scale(0.015625)"/>
     <path id="Cmsy10-6a" d="M 763 -1484 
L 763 4684 
Q 763 4734 800 4767 
Q 838 4800 891 4800 
Q 938 4800 978 4767 
Q 1019 4734 1019 4684 
L 1019 -1484 
Q 1019 -1534 978 -1567 
Q 938 -1600 891 -1600 
Q 838 -1600 800 -1567 
Q 763 -1534 763 -1484 
z
" transform="scale(0.015625)"/>
    </defs>
    <use xlink:href="#DejaVuSerif-53" transform="translate(0 0.015625)"/>
    <use xlink:href="#DejaVuSerif-74" transform="translate(68.505859 0.015625)"/>
    <use xlink:href="#DejaVuSerif-65" transform="translate(108.691406 0.015625)"/>
    <use xlink:href="#DejaVuSerif-70" transform="translate(167.871094 0.015625)"/>
    <use xlink:href="#DejaVuSerif-20" transform="translate(231.884766 0.015625)"/>
    <use xlink:href="#DejaVuSerif-31" transform="translate(263.671875 0.015625)"/>
    <use xlink:href="#DejaVuSerif-20" transform="translate(327.294922 0.015625)"/>
    <use xlink:href="#DejaVuSerif-6f" transform="translate(359.082031 0.015625)"/>
    <use xlink:href="#DejaVuSerif-75" transform="translate(419.287109 0.015625)"/>
    <use xlink:href="#DejaVuSerif-74" transform="translate(483.691406 0.015625)"/>
    <use xlink:href="#DejaVuSerif-70" transform="translate(523.876953 0.015625)"/>
    <use xlink:href="#DejaVuSerif-75" transform="translate(587.890625 0.015625)"/>
    <use xlink:href="#DejaVuSerif-74" transform="translate(652.294922 0.015625)"/>
    <use xlink:href="#DejaVuSerif-3a" transform="translate(692.480469 0.015625)"/>
    <use xlink:href="#DejaVuSerif-20" transform="translate(726.171875 0.015625)"/>
    <use xlink:href="#DejaVuSerif-70" transform="translate(757.958984 0.015625)"/>
    <use xlink:href="#DejaVuSerif-6f" transform="translate(821.972656 0.015625)"/>
    <use xlink:href="#DejaVuSerif-6c" transform="translate(882.177734 0.015625)"/>
    <use xlink:href="#DejaVuSerif-79" transform="translate(914.160156 0.015625)"/>
    <use xlink:href="#DejaVuSerif-68" transform="translate(970.654297 0.015625)"/>
    <use xlink:href="#DejaVuSerif-65" transform="translate(1035.058594 0.015625)"/>
    <use xlink:href="#DejaVuSerif-64" transform="translate(1094.238281 0.015625)"/>
    <use xlink:href="#DejaVuSerif-72" transform="translate(1158.251953 0.015625)"/>
    <use xlink:href="#DejaVuSerif-61" transform="translate(1206.054688 0.015625)"/>
    <use xlink:href="#DejaVuSerif-6c" transform="translate(1265.673828 0.015625)"/>
    <use xlink:href="#DejaVuSerif-20" transform="translate(1297.65625 0.015625)"/>
    <use xlink:href="#DejaVuSerif-74" transform="translate(1329.443359 0.015625)"/>
    <use xlink:href="#DejaVuSerif-65" transform="translate(1369.628906 0.015625)"/>
    <use xlink:href="#DejaVuSerif-73" transform="translate(1428.808594 0.015625)"/>
    <use xlink:href="#DejaVuSerif-73" transform="translate(1480.126953 0.015625)"/>
    <use xlink:href="#DejaVuSerif-65" transform="translate(1531.445312 0.015625)"/>
    <use xlink:href="#DejaVuSerif-6c" transform="translate(1590.625 0.015625)"/>
    <use xlink:href="#DejaVuSerif-6c" transform="translate(1622.607422 0.015625)"/>
    <use xlink:href="#DejaVuSerif-61" transform="translate(1654.589844 0.015625)"/>
    <use xlink:href="#DejaVuSerif-74" transform="translate(1714.208984 0.015625)"/>
    <use xlink:href="#DejaVuSerif-69" transform="translate(1754.394531 0.015625)"/>
    <use xlink:href="#DejaVuSerif-6f" transform="translate(1786.376953 0.015625)"/>
    <use xlink:href="#DejaVuSerif-6e" transform="translate(1846.582031 0.015625)"/>
    <use xlink:href="#DejaVuSerif-20" transform="translate(1910.986328 0.015625)"/>
    <use xlink:href="#DejaVuSerif-6f" transform="translate(1942.773438 0.015625)"/>
    <use xlink:href="#DejaVuSerif-66" transform="translate(2002.978516 0.015625)"/>
    <use xlink:href="#DejaVuSerif-20" transform="translate(2039.990234 0.015625)"/>
    <use xlink:href="#Cmr10-63" transform="translate(2071.777344 0.015625)"/>
    <use xlink:href="#Cmr10-6f" transform="translate(2116.162109 0.015625)"/>
    <use xlink:href="#Cmr10-6e" transform="translate(2166.162109 0.015625)"/>
    <use xlink:href="#Cmr10-76" transform="translate(2221.679688 0.015625)"/>
    <use xlink:href="#Cmr10-28" transform="translate(2274.365234 0.015625)"/>
    <use xlink:href="#Cmmi10-78" transform="translate(2313.183594 0.015625)"/>
    <use xlink:href="#Cmmi10-79" transform="translate(2370.263672 0.015625)"/>
    <use xlink:href="#Cmsy10-6a" transform="translate(2419.287109 0.015625)"/>
    <use xlink:href="#Cmmi10-54" transform="translate(2451.436797 -16.990625) scale(0.7)"/>
    <use xlink:href="#Cmr10-31" transform="translate(2492.315703 -28.895) scale(0.49)"/>
    <use xlink:href="#Cmr10-29" transform="translate(2527.657187 0.015625)"/>
    <use xlink:href="#DejaVuSerif-20" transform="translate(2566.475547 0.015625)"/>
    <use xlink:href="#DejaVuSerif-61" transform="translate(2598.262656 0.015625)"/>
    <use xlink:href="#DejaVuSerif-6e" transform="translate(2657.881797 0.015625)"/>
    <use xlink:href="#DejaVuSerif-64" transform="translate(2722.286094 0.015625)"/>
    <use xlink:href="#DejaVuSerif-20" transform="translate(2786.299766 0.015625)"/>
    <use xlink:href="#Cmr10-63" transform="translate(2818.086875 0.015625)"/>
    <use xlink:href="#Cmr10-6f" transform="translate(2862.471641 0.015625)"/>
    <use xlink:href="#Cmr10-6e" transform="translate(2912.471641 0.015625)"/>
    <use xlink:href="#Cmr10-76" transform="translate(2967.989219 0.015625)"/>
    <use xlink:href="#Cmr10-28" transform="translate(3020.674766 0.015625)"/>
    <use xlink:href="#Cmmi10-78" transform="translate(3059.493125 0.015625)"/>
    <use xlink:href="#Cmmi10-79" transform="translate(3116.573203 0.015625)"/>
    <use xlink:href="#Cmsy10-6a" transform="translate(3165.596641 0.015625)"/>
    <use xlink:href="#Cmmi10-54" transform="translate(3197.746328 -16.990625) scale(0.7)"/>
    <use xlink:href="#Cmr10-32" transform="translate(3238.625234 -28.895) scale(0.49)"/>
    <use xlink:href="#Cmr10-29" transform="translate(3273.966719 0.015625)"/>
   </g>
  </g>
 </g>
 <defs>
  <clipPath id="p840b2224f7">
   <rect x="49.765365" y="76.6575" width="180.414271" height="254.7025"/>
  </clipPath>
  <clipPath id="p471dbb42e8">
   <rect x="416.519285" y="76.6575" width="157.452455" height="254.7025"/>
  </clipPath>
 </defs>
</svg>
